<svg width="267" xmlns="http://www.w3.org/2000/svg" height="346" id="screenshot-19238422-6354-80ab-8006-964709a3c83a" viewBox="0 0 267 346" xmlns:xlink="http://www.w3.org/1999/xlink" fill="none" version="1.1"><g id="shape-19238422-6354-80ab-8006-964709a3c83a" rx="0" ry="0"><g id="shape-19238422-6354-80ab-8006-964709a3c83b"><g class="fills" id="fills-19238422-6354-80ab-8006-964709a3c83b"><path d="M0,268.6856689453125L80.40286254882812,224.7264404296875L80.48330688476562,186.3321533203125L70.11557006835938,175.7452392578125L68.09951782226562,146.4754638671875C60.3834228515625,145.3436279296875,56.6331787109375,142.171875,55.47418212890625,134.4234619140625C54.32952880859375,126.76416015625,53.96429443359375,118.739990234375,52.95770263671875,111.03466796875C53.44085693359375,106.58447265625,56.6820068359375,103.71435546875,60.975830078125,103.010498046875C60.625,100.05712890625,59.9605712890625,97.1324462890625,59.61260986328125,94.181884765625C57.03009033203125,72.390380859375,59.1812744140625,53.5782470703125,71.76345825195312,35.2833251953125C84.47225952148438,16.8013916015625,108.3426513671875,1.2615966796875,131.1431884765625,0.077880859375C163.52630615234375,-1.599853515625,196.9246826171875,24.044189453125,206.941650390625,54.1759033203125C212.19598388671875,69.9771728515625,210.8701171875,86.818359375,208.2271728515625,103.007568359375C212.86602783203125,104.0762939453125,216.1158447265625,107.0699462890625,216.13885498046875,112.086181640625C214.9827880859375,119.5672607421875,214.64630126953125,127.2296142578125,213.4527587890625,134.69921875C212.3369140625,141.6834716796875,208.2789306640625,145.7257080078125,201.07464599609375,146.1710205078125L199.7344970703125,170.806640625C199.9041748046875,171.30078125,203.71484375,171.984619140625,204.60345458984375,172.277587890625C225.01690673828125,179.04052734375,226.10687255859375,199.3494873046875,229.29638671875,217.0584716796875C231.68914794921875,230.3516845703125,237.668212890625,244.6993408203125,253.4830322265625,244.5728759765625C252.94525146484375,245.3399658203125,251.59930419921875,245.7823486328125,250.71356201171875,246.075439453125C246.27886962890625,247.54638671875,240.754150390625,247.4918212890625,236.388427734375,245.805419921875C234.63983154296875,245.1302490234375,233.10986328125,243.969482421875,231.41876220703125,243.1910400390625L231.41876220703125,249.117919921875L267,268.6884765625L267,346L0,346L0,268.6884765625Z" style="fill: rgb(16, 16, 16); fill-opacity: 1;"/></g></g><g id="shape-19238422-6354-80ab-8006-964709a3c83c" rx="0" ry="0"><g id="shape-19238422-6354-80ab-8006-964709a3c83d" rx="0" ry="0"><g id="shape-19238422-6354-80ab-8006-964709a3c83f"><defs style="fill: rgb(255, 255, 255); fill-opacity: 1;"><g id="shape-19238422-6354-80ab-8006-964709a3c844"><style>#shape-{ .cls-1 {
        fill: #f1d4b5;
      } }</style></g></defs></g><g id="shape-19238422-6354-80ab-8006-964709a3c840"><g class="fills" id="fills-19238422-6354-80ab-8006-964709a3c840"><path d="M86.97445678710938,39.365234375L133.92141723632812,30.9935302734375L181.02081298828125,38.79931640625C181.5125732421875,38.94873046875,181.7110595703125,39.39111328125,182.00439453125,39.7474365234375C189.936279296875,49.446533203125,197.38494873046875,66.5205078125,199.078857421875,78.91162109375C199.72027587890625,83.6031494140625,199.0472412109375,89.9122314453125,198.8775634765625,94.8192138671875C197.96588134765625,121.1298828125,195.4925537109375,147.5467529296875,194.12646484375,173.8602294921875L155.9339599609375,212.3463134765625L134.24066162109375,197.2490234375L113.23764038085938,212.639404296875L74.82644653320312,173.58447265625C73.40579223632812,152.0084228515625,71.81539916992188,130.464111328125,70.61892700195312,108.8824462890625C70.23641967773438,101.995849609375,69.79928588867188,95.0777587890625,69.52035522460938,88.2056884765625C69.24996948242188,81.523193359375,69.53189086914062,77.6820068359375,71.25173950195312,71.19775390625C74.34616088867188,59.51904296875,80.00607299804688,49.127685546875,86.97445678710938,39.365234375Z" class="cls-1" style="fill: rgb(255, 255, 255); fill-opacity: 1;"/></g></g><g id="shape-19238422-6354-80ab-8006-964709a3c841"><g class="fills" id="fills-19238422-6354-80ab-8006-964709a3c841"><path d="M184.7049560546875,236.0859375C185.3721923828125,242.9954833984375,190.04266357421875,249.157958984375,195.32586669921875,253.3094482421875L197.63238525390625,249.6263427734375C194.37384033203125,246.94580078125,191.635986328125,243.9779052734375,190.28717041015625,239.8782958984375C190.0484619140625,239.1514892578125,189.39276123046875,236.9708251953125,189.39276123046875,236.36181640625L189.39276123046875,228.64501953125C189.39276123046875,228.4927978515625,188.711181640625,227.6824951171875,189.389892578125,227.6824951171875C191.71368408203125,235.3074951171875,196.36981201171875,242.484130859375,202.9039306640625,247.115234375L203.20587158203125,247.6669921875C203.2462158203125,248.1151123046875,202.9959716796875,248.339111328125,202.8148193359375,248.6724853515625C201.81396484375,250.5081787109375,198.8603515625,253.990234375,197.385009765625,255.64794921875C179.59442138671875,275.6552734375,152.38507080078125,284.9493408203125,125.90341186523438,280.2376708984375C101.58148193359375,275.9110107421875,78.72055053710938,259.2421875,69.43124389648438,236.1146240234375L85.40713500976562,227.541748046875L85.40713500976562,191.0206298828125L118.23611450195312,223.9534912109375L151.4820556640625,223.835693359375L184.70208740234375,190.468994140625L184.70208740234375,236.0859375Z" class="cls-1" style="fill: rgb(255, 255, 255); fill-opacity: 1;"/></g></g><g id="shape-19238422-6354-80ab-8006-964709a3c842"><g class="fills" id="fills-19238422-6354-80ab-8006-964709a3c842"><path d="M65.61123657226562,109.322509765625C66.05416870117188,119.110595703125,66.85940551757812,128.89306640625,67.55245971679688,138.6697998046875C67.58126831054688,139.092041015625,67.76821899414062,140.0889892578125,67.12692260742188,139.9281005859375C64.26528930664062,139.514404296875,62.30108642578125,138.4801025390625,61.55621337890625,135.5640869140625C59.75299072265625,128.525390625,60.3109130859375,119.7025146484375,58.7061767578125,112.4798583984375C58.7320556640625,111.2301025390625,59.26409912109375,110.0953369140625,60.2332763671875,109.322509765625L65.61123657226562,109.322509765625Z" class="cls-1" style="fill: rgb(255, 255, 255); fill-opacity: 1;"/></g></g><g id="shape-19238422-6354-80ab-8006-964709a3c843"><g class="fills" id="fills-19238422-6354-80ab-8006-964709a3c843"><path d="M201.52008056640625,139.6436767578125L203.4498291015625,109.322509765625L208.4942626953125,109.6585693359375C210.027099609375,110.4658203125,209.871826171875,112.103515625,209.8056640625,113.60888671875C209.4835205078125,120.98095703125,207.68609619140625,129.3729248046875,206.7139892578125,136.7047119140625C205.69586181640625,138.727294921875,203.72015380859375,139.6322021484375,201.52008056640625,139.6466064453125Z" class="cls-1" style="fill: rgb(255, 255, 255); fill-opacity: 1;"/></g></g></g><g id="shape-19238422-6354-80ab-8006-964709a3c83e" rx="0" ry="0"><g id="shape-19238422-6354-80ab-8006-964709a3c846"><g class="fills" id="fills-19238422-6354-80ab-8006-964709a3c846"><path d="M79.02749633789062,102.2777099609375L79.02749633789062,95.3883056640625L92.67959594726562,89.599365234375L117.75210571289062,92.937744140625L127.835205078125,109.5950927734375L127.835205078125,135.7506103515625C127.18231201171875,138.43115234375,124.15972900390625,141.7149658203125,123.55294799804688,144.1712646484375C123.4810791015625,144.46435546875,123.32858276367188,144.71435546875,123.55865478515625,145.0045166015625L134.60809326171875,150.2188720703125L146.75030517578125,144.475830078125L149.64349365234375,150.0953369140625C149.5543212890625,150.54638671875,144.30288696289062,151.155517578125,143.30490112304688,151.48583984375C141.82095336914062,151.98291015625,135.0250244140625,155.7493896484375,134.3779296875,155.68896484375L125.9197998046875,151.7301025390625C125.22955322265625,151.5633544921875,124.5882568359375,151.93408203125,123.85198974609375,151.916748046875C121.71231079101562,151.8736572265625,117.68313598632812,147.6820068359375,115.84249877929688,146.3719482421875L115.85110473632812,145.5675048828125L122.62393188476562,135.7794189453125L122.59808349609375,110.7012939453125L118.73284912109375,104.3663330078125L93.51651000976562,98.6778564453125L79.03323364257812,102.2777099609375Z" style="fill: rgb(16, 16, 16); fill-opacity: 1;"/></g></g><g id="shape-19238422-6354-80ab-8006-964709a3c847"><g class="fills" id="fills-19238422-6354-80ab-8006-964709a3c847"><path d="M189.712890625,102.27490234375L175.24969482421875,98.68359375L143.37844848632812,105.3057861328125L150.61148071289062,92.811279296875L174.68316650390625,89.5992431640625L176.75958251953125,89.7257080078125L189.7156982421875,95.517578125L189.712890625,102.27490234375Z" style="fill: rgb(16, 16, 16); fill-opacity: 1;"/></g></g><g id="shape-19238422-6354-80ab-8006-964709a3c848"><g class="fills" id="fills-19238422-6354-80ab-8006-964709a3c848"><path d="M105.55813598632812,164.4556884765625L125.859375,157.445556640625C128.122802734375,157.201416015625,132.31301879882812,160.341552734375,134.65695190429688,160.9908447265625L142.885009765625,157.221435546875L163.1690673828125,164.0792236328125C163.2467041015625,165.59912109375,163.72991943359375,167.3746337890625,163.76727294921875,168.85986328125C163.78167724609375,169.4775390625,163.8218994140625,169.2247314453125,163.47393798828125,169.1529541015625C155.88717651367188,167.5526123046875,148.26589965820312,166.0989990234375,140.71658325195312,164.30908203125L134.67706298828125,166.794189453125L128.5972900390625,164.3062744140625L105.55813598632812,169.55224609375L105.55813598632812,164.4527587890625Z" style="fill: rgb(16, 16, 16); fill-opacity: 1;"/></g></g><g id="shape-19238422-6354-80ab-8006-964709a3c849"><g class="fills" id="fills-19238422-6354-80ab-8006-964709a3c849"><path d="M170.78863525390625,110.471923828125C172.25537109375,115.7294921875,167.21954345703125,120.34912109375,162.14642333984375,117.864013671875C159.7880859375,116.7091064453125,158.24078369140625,113.5430908203125,158.92242431640625,111.0263671875C155.97750854492188,112.0750732421875,153.48117065429688,114.36767578125,151.60601806640625,116.8125L148.47415161132812,114.1407470703125C148.22964477539062,113.1983642578125,150.97909545898438,110.45751953125,151.74691772460938,109.779541015625C159.94915771484375,102.533935546875,173.103759765625,103.3699951171875,180.57537841796875,111.2965087890625C183.603759765625,114.5084228515625,182.07958984375,114.3504638671875,179.4337158203125,117.0682373046875C179.16046142578125,117.1170654296875,176.5203857421875,114.0487060546875,175.87615966796875,113.511474609375C174.34039306640625,112.2330322265625,172.5860595703125,111.313720703125,170.78570556640625,110.471923828125Z" style="fill: rgb(16, 16, 16); fill-opacity: 1;"/></g></g><g id="shape-19238422-6354-80ab-8006-964709a3c84a"><g class="fills" id="fills-19238422-6354-80ab-8006-964709a3c84a"><path d="M116.41531372070312,116.8206787109375C115.48922729492188,114.7982177734375,111.95465087890625,111.7098388671875,109.92425537109375,111.0374755859375C109.260009765625,110.819091796875,109.86099243164062,111.994140625,109.81497192382812,112.5457763671875C109.00973510742188,121.8197021484375,95.86380004882812,119.578857421875,97.93157958984375,110.7587890625C94.69900512695312,111.57470703125,91.90646362304688,114.1632080078125,90.04287719726562,116.84375C89.19448852539062,116.94140625,86.28683471679688,114.1431884765625,86.36740112304688,113.689208984375C88.63937377929688,110.9915771484375,91.18173217773438,108.397216796875,94.37979125976562,106.7940673828125C102.98171997070312,102.4818115234375,115.14993286132812,105.3778076171875,119.95559692382812,113.887451171875L116.41815185546875,116.8206787109375Z" style="fill: rgb(16, 16, 16); fill-opacity: 1;"/></g></g><g id="shape-19238422-6354-80ab-8006-964709a3c84b"><g class="fills" id="fills-19238422-6354-80ab-8006-964709a3c84b"><rect rx="0" ry="0" x="111.76744186046511" y="171.87297044092065" transform="matrix(1.000000, 0.000000, 0.000000, 1.000000, 0.000000, 0.000000)" width="45.785068052564384" height="4.700168569032485" style="fill: rgb(16, 16, 16); fill-opacity: 1;"/></g></g><g id="shape-19238422-6354-80ab-8006-964709a3c84c"><g class="fills" id="fills-19238422-6354-80ab-8006-964709a3c84c"><path d="M144.88507080078125,182.579833984375L134.77035522460938,191.359619140625L124.75051879882812,182.579833984375L144.88507080078125,182.579833984375Z" style="fill: rgb(16, 16, 16); fill-opacity: 1;"/></g></g></g></g></g></svg>