<svg width="1344" height="1344" viewBox="0 0 1344 1344" xmlns="http://www.w3.org/2000/svg"><g fill="var(--background-secondary)"><path d="M855.74 700.03L1239.01 315.94c-87.12-137.8-222.93-241.74-383.27-287.56L855.74 700.03z"/><path d="M1259.38 345.29L784.82 820.84h542.62c10.82-47.88 16.56-97.69 16.56-148.84 0-118.6-30.74-230-84.62-326.71z"/><path d="M642.99 856.13l380.25 387.28c140.8-87 247.1-224.5 293.59-387.28H642.99z"/><path d="M16.56 525.03c-10.82 47.88-16.56 97.68-16.56 148.84 0 119.3 31.11 231.32 85.6 328.45l473.74-477.29H16.56z"/><path d="M695.74 488.66L312.92 104.06C174.26 191.18 69.65 327.54 23.64 488.66h672.1z"/><path d="M520.06 785.18v542.25c47.86 10.83 97.65 16.56 148.78 16.56 115.95 0 225.04-29.4 320.23-81.13L520.06 785.18z"/><path d="M486.23 648.01L104.01 1033.09c87.17 136.97 222.54 240.24 382.22 285.87V648.01z"/><path d="M818.57 559.25V16.57C770.71 5.75 720.93 0 669.8 0 552.03 0 441.37 30.35 345.13 83.6L818.57 559.25z"/></g></svg>