<?xml version="1.0" encoding="UTF-8"?>
<svg id="Layer_2" data-name="Layer 2" xmlns="http://www.w3.org/2000/svg" viewBox="0 0 312.57 368.56">
  <defs>
    <style>
      .cls-1 {
        fill: #fdb00a;
      }

      .cls-2 {
        fill: #171717;
      }
    </style>
  </defs>
  <g id="Everything_Else" data-name="Everything Else">
    <g>
      <g>
        <path class="cls-1" d="M85.8,26.51c-20.98,9.15-37.33,21.91-49.03,38.26-1.81,2.53-3.47,5.15-5,7.84L102.4,20.46c-5.76,1.73-11.3,3.74-16.6,6.06Z"/>
        <path class="cls-1" d="M115.2,17.24L26.94,82.42c-2.17,5.18-3.89,10.6-5.15,16.27L136.58,13.92c-7.42.73-14.54,1.85-21.38,3.32Z"/>
        <path class="cls-1" d="M159.67,12.78c-4.67,0-9.2.17-13.67.42L20.47,105.91c-.64,4.32-1.04,8.76-1.19,13.35L163.36,12.85c-1.23-.02-2.45-.07-3.69-.07Z"/>
        <path class="cls-1" d="M171.44,13.11L19.28,125.49c.08,4.11.34,8.07.84,11.85L186.62,14.38c-5-.6-10.06-1.01-15.17-1.27Z"/>
        <path class="cls-1" d="M193.7,15.38L21.02,142.91c.72,3.64,1.69,7.08,2.84,10.37L207.14,17.93c-4.43-.99-8.91-1.84-13.44-2.54Z"/>
        <path class="cls-1" d="M102.03,113.59c0-5.25.87-9.79,2.55-13.67l-78.8,58.2c1.38,3.15,2.99,6.12,4.81,8.92l71.47-52.78c0-.22-.02-.43-.02-.66Z"/>
        <path class="cls-1" d="M129.52,81.63c6.6-1.76,13.58-2.77,20.9-3.11l75.2-55.54c-3.99-1.29-8.01-2.5-12.08-3.55l-84.34,62.29c.11-.03.21-.07.32-.09Z"/>
        <path class="cls-1" d="M174.1,79.74l68.25-50.41c-3.58-1.6-7.23-3.07-10.92-4.4l-72.46,53.51c5.06.13,10.11.54,15.13,1.3Z"/>
        <path class="cls-1" d="M102.59,120.08l-69.12,51.05c2.01,2.62,4.21,5.15,6.64,7.56l66.31-48.97c-1.88-2.73-3.16-5.94-3.83-9.64Z"/>
        <path class="cls-1" d="M193.4,84.2l63.91-47.2c-3.22-1.87-6.48-3.61-9.8-5.23l-66.61,49.2c4.18.86,8.35,1.95,12.5,3.24Z"/>
        <path class="cls-1" d="M109.74,133.51l-65.91,48.68c2.54,2.23,5.31,4.34,8.25,6.38l66.31-48.97c-3.44-1.9-6.32-3.93-8.65-6.08Z"/>
        <path class="cls-1" d="M164.97,156.62c-2.53-.8-4.96-1.58-7.34-2.36l-70.31,51.93c3.55,1.44,7.21,2.88,11.03,4.33l71.2-52.58c-1.53-.44-3.02-.88-4.58-1.32Z"/>
        <path class="cls-1" d="M31.8,253.28l-5.95,10.78,10.15-7.49c-1.4-1.09-2.79-2.16-4.2-3.29Z"/>
        <path class="cls-1" d="M238.75,106.83l43.01-31.77,8.42-13.25c-1.08-1.03-2.17-2.03-3.26-3.03l-57.21,42.25c2.98,1.81,6,3.75,9.04,5.79Z"/>
        <path class="cls-1" d="M40.11,259.76l-20.06,14.82-11.61,21.05,40.19-29.68c-2.83-1.98-5.67-4.03-8.52-6.18Z"/>
        <path class="cls-1" d="M175.62,159.69l-71.66,52.92c3.67,1.36,7.45,2.72,11.36,4.08l72.26-53.36c-3.89-1.22-7.86-2.43-11.95-3.64Z"/>
        <path class="cls-1" d="M251.63,116.02l7.75-5.72,14.92-23.49-31.17,23.02c2.81,1.97,5.64,4.04,8.49,6.2Z"/>
        <path class="cls-1" d="M193.48,165.21l-72.41,53.47c3.78,1.29,7.64,2.58,11.63,3.88l72.4-53.47c-3.77-1.3-7.63-2.6-11.62-3.89Z"/>
        <path class="cls-1" d="M53.02,268.94L2.63,306.15l-2.63,4.76c1.89,1.85,3.84,3.61,5.8,5.37l56.25-41.54c-3-1.83-6.01-3.78-9.03-5.8Z"/>
        <path class="cls-1" d="M210.82,171.1l-72.13,53.27c4.23,1.2,8.28,2.37,12.15,3.5l71.22-52.6c-3.62-1.4-7.36-2.79-11.23-4.18Z"/>
        <path class="cls-1" d="M66.75,277.5l-57.08,42.15c2.64,2.24,5.34,4.4,8.1,6.49l58.68-43.34c-3.23-1.65-6.46-3.43-9.71-5.3Z"/>
        <path class="cls-1" d="M81.53,285.29l-59.54,43.97c2.89,2.06,5.83,4.04,8.85,5.94l61.25-45.24c-3.51-1.41-7.03-2.99-10.57-4.67Z"/>
        <path class="cls-1" d="M235.53,180.75c-2.57-1.11-5.24-2.21-7.96-3.31l-70.7,52.21c4.23,1.26,8.2,2.48,11.94,3.65l69.5-51.33c-.92-.41-1.84-.83-2.78-1.23Z"/>
        <path class="cls-1" d="M243.46,184.41l-68.75,50.77c4.09,1.33,7.82,2.73,11.18,4.21l67.32-49.72c-3.08-1.82-6.33-3.58-9.76-5.27Z"/>
        <path class="cls-1" d="M97.67,292.09l-62.16,45.91c3.16,1.86,6.38,3.64,9.67,5.33l64.13-47.36c-3.85-1.13-7.73-2.44-11.64-3.87Z"/>
        <path class="cls-1" d="M115.44,297.66l-65.28,48.21c3.44,1.65,6.98,3.2,10.56,4.67l67.89-50.14c-4.35-.72-8.74-1.61-13.18-2.74Z"/>
        <path class="cls-1" d="M257.81,192.52l-66.81,49.34c3.23,1.7,6.05,3.49,8.42,5.38.19.15.35.32.54.48l66.38-49.03c-2.65-2.13-5.49-4.19-8.53-6.17Z"/>
        <path class="cls-1" d="M270.26,202.03l-66.83,49.35c2.04,2.71,3.41,5.86,4.08,9.46l69.86-51.59c-2.16-2.49-4.53-4.89-7.12-7.22Z"/>
        <path class="cls-1" d="M151.06,302.3c-5.05,0-10.16-.32-15.33-.91l-69.46,51.3c1.11.42,2.18.88,3.3,1.28,2.69.97,5.4,1.88,8.12,2.75l73.71-54.43c-.11,0-.22,0-.33,0Z"/>
        <path class="cls-1" d="M280.53,213.16l-72.5,53.54c-.02,5.79-1.29,10.88-3.78,15.26l81.48-60.18c-1.52-3.08-3.25-5.96-5.21-8.63Z"/>
        <path class="cls-1" d="M160.29,301.96l-76.65,56.61c4.11,1.21,8.25,2.31,12.43,3.29l87.05-64.29c-6.61,2.33-14.23,3.79-22.82,4.38Z"/>
        <path class="cls-1" d="M287.83,226.47l-185.27,136.82c4.49.94,9.02,1.76,13.58,2.44l174.83-129.12c-.84-3.57-1.88-6.96-3.14-10.15Z"/>
        <path class="cls-1" d="M292.07,242.05l-168.78,124.65c4.97.6,9.98,1.06,15.03,1.37l154.99-114.47c-.22-4.03-.62-7.89-1.24-11.56Z"/>
        <path class="cls-1" d="M293.5,260.3c0-.2,0-.39,0-.59l-147.2,108.71c2.68.08,5.38.14,8.08.14,2.99,0,5.92-.06,8.83-.16l129.72-95.8c.39-3.99.59-8.09.59-12.3Z"/>
        <path class="cls-1" d="M192.28,365.64l96.12-70.99c1.57-4.83,2.77-9.88,3.61-15.14l-119.72,88.42c6.92-.48,13.59-1.24,19.99-2.29Z"/>
        <path class="cls-1" d="M236.1,351.98l33.3-24.59c6.56-7.22,11.77-15.23,15.65-24.03l-81.23,59.99c11.72-2.72,22.48-6.51,32.28-11.37Z"/>
        <path class="cls-1" d="M130.19,144.88c-2.42-.88-4.67-1.8-6.77-2.76l-66.86,49.37c3.02,1.88,6.22,3.67,9.61,5.38l68.3-50.44c-1.47-.52-2.91-1.04-4.28-1.55Z"/>
        <path class="cls-1" d="M204.06,87.97c2,.81,4.02,1.67,6.05,2.6l60.7-44.83c-2.91-2.08-5.85-4.07-8.84-5.94l-62.75,46.34c1.62.58,3.24,1.18,4.85,1.83Z"/>
        <path class="cls-1" d="M225.01,98.27l58.07-42.89c-2.64-2.27-5.33-4.44-8.06-6.52l-59.79,44.16c3.22,1.6,6.49,3.36,9.78,5.25Z"/>
        <path class="cls-1" d="M140.19,148.44l-68.92,50.9c3.37,1.53,6.94,3.07,10.63,4.62l69.88-51.61c-4.1-1.35-7.96-2.66-11.59-3.91Z"/>
      </g>
      <path class="cls-2" d="M173.72,5.02c24.73,0,48.14,3.88,70.23,11.59,22.08,7.73,42.17,20.21,60.29,37.43l-35.77,56.31c-17.67-13.69-34.45-23.73-50.35-30.15-15.9-6.39-32.03-9.61-48.36-9.61-9.27,0-18,1.09-26.17,3.26-8.18,2.17-14.8,5.76-19.87,10.76-5.08,5.01-7.62,12.07-7.62,21.19,0,8.26,2.32,14.68,6.96,19.24s11.7,8.58,21.2,12.06c9.49,3.48,21.09,7.39,34.78,11.74,27.83,7.82,51.34,15.87,70.56,24.13,19.21,8.25,33.68,18.38,43.4,30.32,9.71,11.96,14.57,28.36,14.57,49.23,0,33.92-12.59,60.44-37.76,79.57-25.17,19.13-58.96,28.69-101.36,28.69-29.6,0-57.87-4.87-84.8-14.58-26.94-9.7-50.13-24.07-69.56-43.06l31.8-57.64c20.76,16.8,41.18,29.15,61.28,37.1,20.09,7.95,39.42,11.93,57.97,11.93,17.23,0,31.02-2.98,41.41-8.95,10.37-5.96,15.57-14.91,15.57-26.83,0-8.29-2.88-14.71-8.61-19.29-5.74-4.58-14.03-8.61-24.84-12.11-10.83-3.48-23.96-7.41-39.42-11.76-25.62-8.29-47.04-16.36-64.26-24.2-17.23-7.85-30.15-17.76-38.76-29.76-8.61-11.98-12.92-27.36-12.92-46.11,0-22.67,5.85-42.17,17.56-58.53,11.7-16.36,28.04-29.11,49.03-38.26,20.97-9.15,45.6-13.73,73.87-13.73M173.72,0c-28.83,0-54.36,4.76-75.88,14.15-21.73,9.48-38.93,22.92-51.1,39.94-12.27,17.14-18.49,37.82-18.49,61.45,0,19.74,4.66,36.23,13.86,49.03,9.09,12.65,22.8,23.21,40.76,31.4,17.32,7.89,39.12,16.11,64.8,24.41,15.41,4.35,28.61,8.29,39.43,11.77,10.18,3.29,18.01,7.07,23.25,11.25,4.52,3.61,6.72,8.63,6.72,15.36,0,10.08-4.27,17.43-13.05,22.47-9.56,5.49-22.65,8.28-38.91,8.28-17.84,0-36.72-3.89-56.12-11.57-19.55-7.73-39.73-19.95-59.97-36.34l-4.66-3.77-2.89,5.25-31.8,57.64-1.84,3.34,2.73,2.67c19.87,19.42,43.88,34.29,71.37,44.19,27.38,9.87,56.48,14.88,86.51,14.88,43.33,0,78.46-10,104.4-29.71,26.37-20.03,39.75-48.15,39.75-83.56,0-21.94-5.28-39.56-15.7-52.39-10.22-12.55-25.46-23.24-45.31-31.77-19.33-8.31-43.28-16.51-71.18-24.35-13.34-4.24-24.97-8.16-34.42-11.62-8.77-3.21-15.3-6.88-19.41-10.92-3.67-3.61-5.46-8.73-5.46-15.66,0-7.8,2-13.56,6.12-17.62,4.43-4.36,10.36-7.55,17.64-9.49,7.72-2.05,16.09-3.1,24.88-3.1,15.59,0,31.23,3.11,46.49,9.24,15.4,6.21,31.94,16.12,49.15,29.46l4.35,3.37,2.95-4.65,35.77-56.31,2.21-3.48-2.99-2.84c-18.54-17.63-39.43-30.6-62.09-38.53C223.05,4,198.87,0,173.72,0h0Z"/>
    </g>
  </g>
</svg>