<svg width="46.114" xmlns="http://www.w3.org/2000/svg" height="54.333" id="screenshot-19238422-6354-80ab-8006-96468d63f680" viewBox="0 0 46.114 54.333" xmlns:xlink="http://www.w3.org/1999/xlink" fill="none" version="1.1"><g id="shape-19238422-6354-80ab-8006-96468d63f680" rx="0" ry="0"><g id="shape-19238422-6354-80ab-8006-96468d6427ec"><defs style="fill: rgb(244, 101, 0); fill-opacity: 1;"><g id="shape-19238422-6354-80ab-8006-96468d6427ed"><style>#shape-{ .cls-1 {
        fill: none;
      }

      .cls-2 {
        fill: #f3ede9;
      }

      .cls-3 {
        fill: #f46500;
      } }</style></g></defs></g><g id="shape-19238422-6354-80ab-8006-96468d6427ef"><g class="fills" id="fills-19238422-6354-80ab-8006-96468d6427ef"><path d="M37.53076934814453,17.413408279418945L38.26386260986328,16.26048469543457L37.12061309814453,17.103731155395508C37.257850646972656,17.20707893371582,37.393653869628906,17.30565071105957,37.53076934814453,17.413408279418945Z" class="cls-1" style="fill: rgb(244, 101, 0); fill-opacity: 1;"/></g></g><g id="shape-19238422-6354-80ab-8006-96468d6427f0"><g class="fills" id="fills-19238422-6354-80ab-8006-96468d6427f0"><path d="M37.72541046142578,50.1039924621582C38.47496795654297,49.53499221801758,39.14325714111328,48.9201545715332,39.742095947265625,48.2641487121582L34.829811096191406,51.8891487121582C35.8682861328125,51.37468338012695,36.834442138671875,50.7806282043457,37.727081298828125,50.1039924621582Z" class="cls-1" style="fill: rgb(244, 101, 0); fill-opacity: 1;"/></g></g><g id="shape-19238422-6354-80ab-8006-96468d6427f1"><g class="fills" id="fills-19238422-6354-80ab-8006-96468d6427f1"><path d="M12.657400131225586,3.908114194869995C9.562383651733398,5.257113456726074,7.150335311889648,7.138216972351074,5.424360275268555,9.548480033874512C5.157278060913086,9.921404838562012,4.912519454956055,10.307696342468262,4.686849594116211,10.704257011413574L15.106199264526367,3.0161921977996826C14.256521224975586,3.271334409713745,13.439176559448242,3.5676448345184326,12.657400131225586,3.90967059135437Z" class="cls-3" style="fill: rgb(244, 101, 0); fill-opacity: 1;"/></g></g><g id="shape-19238422-6354-80ab-8006-96468d6427f2"><g class="fills" id="fills-19238422-6354-80ab-8006-96468d6427f2"><path d="M16.994474411010742,2.5417048931121826L3.974287271499634,12.15039348602295C3.654104471206665,12.914034843444824,3.4003965854644775,13.713000297546387,3.214468240737915,14.54895305633545L20.1484432220459,2.05218768119812C19.053884506225586,2.159823179244995,18.003477096557617,2.3247554302215576,16.994474411010742,2.5417048931121826Z" class="cls-3" style="fill: rgb(244, 101, 0); fill-opacity: 1;"/></g></g><g id="shape-19238422-6354-80ab-8006-96468d6427f3"><g class="fills" id="fills-19238422-6354-80ab-8006-96468d6427f3"><path d="M23.5546932220459,1.8840358257293701C22.865758895874023,1.8840358257293701,22.19746971130371,1.9090907573699951,21.538007736206055,1.9459712505340576L3.0197126865386963,15.613329887390137C2.92543625831604,16.25023078918457,2.8664839267730713,16.904787063598633,2.844282388687134,17.581438064575195L24.098989486694336,1.8944118022918701C23.917593002319336,1.8914363384246826,23.737638473510742,1.8840358257293701,23.5546932220459,1.8840358257293701Z" class="cls-3" style="fill: rgb(244, 101, 0); fill-opacity: 1;"/></g></g><g id="shape-19238422-6354-80ab-8006-96468d6427f4"><g class="fills" id="fills-19238422-6354-80ab-8006-96468d6427f4"><path d="M25.290929794311523,1.9327266216278076L2.844282388687134,18.499971389770508C2.85597825050354,19.105730056762695,2.8944075107574463,19.689531326293945,2.968153238296509,20.246721267700195L27.53041648864746,2.120089292526245C26.79279136657715,2.0315425395965576,26.04633903503418,1.9710261821746826,25.2924861907959,1.9327266216278076Z" class="cls-3" style="fill: rgb(244, 101, 0); fill-opacity: 1;"/></g></g><g id="shape-19238422-6354-80ab-8006-96468d6427f5"><g class="fills" id="fills-19238422-6354-80ab-8006-96468d6427f5"><path d="M28.574857711791992,2.2672297954559326L3.1009809970855713,21.067873001098633C3.2070677280426025,21.60441780090332,3.350271463394165,22.111604690551758,3.519972085952759,22.596712112426758L30.557531356811523,2.64325213432312C29.903921127319336,2.4974238872528076,29.243146896362305,2.37201189994812,28.574857711791992,2.268893003463745Z" class="cls-3" style="fill: rgb(244, 101, 0); fill-opacity: 1;"/></g></g><g id="shape-19238422-6354-80ab-8006-96468d6427f6"><g class="fills" id="fills-19238422-6354-80ab-8006-96468d6427f6"><path d="M15.051664352416992,16.74559211730957C15.051664352416992,15.971697807312012,15.179952621459961,15.302325248718262,15.427694320678711,14.73034954071045L3.8031599521636963,23.31022834777832C4.006628036499023,23.774446487426758,4.244230270385742,24.212419509887695,4.512739181518555,24.625200271606445L15.056081771850586,16.84428596496582C15.056081771850586,16.811952590942383,15.052976608276367,16.780916213989258,15.052976608276367,16.747026443481445Z" class="cls-3" style="fill: rgb(244, 101, 0); fill-opacity: 1;"/></g></g><g id="shape-19238422-6354-80ab-8006-96468d6427f7"><g class="fills" id="fills-19238422-6354-80ab-8006-96468d6427f7"><path d="M19.106870651245117,12.034045219421387C20.080663681030273,11.7746000289917,21.11030387878418,11.625658988952637,22.1900691986084,11.575549125671387L33.28367614746094,3.3878047466278076C32.695098876953125,3.1975886821746826,32.10199737548828,3.01916766166687,31.50172996520996,2.8643977642059326L19.059850692749023,12.047289848327637C19.076078414916992,12.042742729187012,19.090635299682617,12.036898612976074,19.106870651245117,12.034045219421387Z" class="cls-3" style="fill: rgb(244, 101, 0); fill-opacity: 1;"/></g></g><g id="shape-19238422-6354-80ab-8006-96468d6427f8"><g class="fills" id="fills-19238422-6354-80ab-8006-96468d6427f8"><path d="M25.68330955505371,11.755267143249512L35.75169372558594,4.323885917663574C35.22350311279297,4.088076591491699,34.68517303466797,3.8712337017059326,34.14075469970703,3.67517352104187L23.451467514038086,11.56372356414795C24.197797775268555,11.5829496383667,24.94294548034668,11.643328666687012,25.68330955505371,11.755267143249512Z" class="cls-3" style="fill: rgb(244, 101, 0); fill-opacity: 1;"/></g></g><g id="shape-19238422-6354-80ab-8006-96468d6427f9"><g class="fills" id="fills-19238422-6354-80ab-8006-96468d6427f9"><path d="M15.134244918823242,17.70231819152832L4.937582015991211,25.228212356567383C5.234136581420898,25.614397048950195,5.558614730834961,25.987321853637695,5.917104721069336,26.342714309692383L15.699186325073242,19.12339973449707C15.421964645385742,18.72087287902832,15.233053207397461,18.247941970825195,15.134244918823242,17.70231819152832Z" class="cls-3" style="fill: rgb(244, 101, 0); fill-opacity: 1;"/></g></g><g id="shape-19238422-6354-80ab-8006-96468d6427fa"><g class="fills" id="fills-19238422-6354-80ab-8006-96468d6427fa"><path d="M28.53046226501465,12.412814140319824L37.958595275878906,5.454607963562012C37.48363494873047,5.178942680358887,37.002708435058594,4.922366142272949,36.51294708251953,4.683566093444824L26.686460494995117,11.936663627624512C27.303197860717773,12.063509941101074,27.918378829956055,12.224139213562012,28.53046226501465,12.4143705368042Z" class="cls-3" style="fill: rgb(244, 101, 0); fill-opacity: 1;"/></g></g><g id="shape-19238422-6354-80ab-8006-96468d6427fb"><g class="fills" id="fills-19238422-6354-80ab-8006-96468d6427fb"><path d="M16.188947677612305,19.682130813598633L6.465932846069336,26.858598709106445C6.84065055847168,27.187257766723633,7.249265670776367,27.498491287231445,7.68293571472168,27.799226760864258L17.465024948120117,20.580034255981445C16.95760154724121,20.299821853637695,16.532636642456055,20.000520706176758,16.188947677612305,19.683687210083008Z" class="cls-3" style="fill: rgb(244, 101, 0); fill-opacity: 1;"/></g></g><g id="shape-19238422-6354-80ab-8006-96468d6427fc"><g class="fills" id="fills-19238422-6354-80ab-8006-96468d6427fc"><path d="M24.336469650268555,23.08909797668457C23.963300704956055,22.971071243286133,23.60493278503418,22.856142044067383,23.253721237182617,22.741228103637695L12.881513595581055,30.39671516418457C13.405401229858398,30.609025955200195,13.945287704467773,30.821321487426758,14.508794784545898,31.035051345825195L25.01215934753418,23.28361701965332C24.786489486694336,23.218812942504883,24.566556930541992,23.154008865356445,24.336469650268555,23.08909797668457Z" class="cls-3" style="fill: rgb(244, 101, 0); fill-opacity: 1;"/></g></g><g id="shape-19238422-6354-80ab-8006-96468d6427fd"><g class="fills" id="fills-19238422-6354-80ab-8006-96468d6427fd"><path d="M4.691267013549805,37.33882522583008L3.8134214878082275,38.92790603637695L5.310750961303711,37.82381057739258C5.104291915893555,37.66316604614258,4.899274826049805,37.50529861450195,4.691267013549805,37.33882522583008Z" class="cls-3" style="fill: rgb(244, 101, 0); fill-opacity: 1;"/></g></g><g id="shape-19238422-6354-80ab-8006-96468d6427fe"><g class="fills" id="fills-19238422-6354-80ab-8006-96468d6427fe"><path d="M35.22064208984375,15.749011039733887L41.565452575683594,11.0654935836792L42.80763244628906,9.11206340789795C42.6483154296875,8.9603910446167,42.487449645996094,8.812762260437012,42.32658386230469,8.665499687194824L33.887046813964844,14.893954277038574C34.326683044433594,15.160799980163574,34.77228546142578,15.446734428405762,35.22064208984375,15.747576713562012Z" class="cls-3" style="fill: rgb(244, 101, 0); fill-opacity: 1;"/></g></g><g id="shape-19238422-6354-80ab-8006-96468d6427ff"><g class="fills" id="fills-19238422-6354-80ab-8006-96468d6427ff"><path d="M5.917104721069336,38.29411697387695L2.9578917026519775,40.47880935668945L1.2451612949371338,43.58208084106445L7.17408561706543,39.20656204223633C6.756643295288086,38.9146614074707,6.337530136108398,38.61250686645508,5.917104721069336,38.29542922973633Z" class="cls-3" style="fill: rgb(244, 101, 0); fill-opacity: 1;"/></g></g><g id="shape-19238422-6354-80ab-8006-96468d642800"><g class="fills" id="fills-19238422-6354-80ab-8006-96468d642800"><path d="M25.90766716003418,23.541749954223633L15.336286544799805,31.34318733215332C15.877836227416992,31.543550491333008,16.43537712097168,31.744279861450195,17.012258529663086,31.944658279418945L27.67194938659668,24.078279495239258C27.098173141479492,23.898439407348633,26.51247215270996,23.720033645629883,25.909101486206055,23.541749954223633Z" class="cls-3" style="fill: rgb(244, 101, 0); fill-opacity: 1;"/></g></g><g id="shape-19238422-6354-80ab-8006-96468d642801"><g class="fills" id="fills-19238422-6354-80ab-8006-96468d642801"><path d="M37.12061309814453,17.103731155395508L38.26386260986328,16.26048469543457L40.46504211425781,12.7976713180542L35.866851806640625,16.19127082824707C36.28118896484375,16.48173713684082,36.698875427246094,16.786775588989258,37.119178771972656,17.10539436340332Z" class="cls-3" style="fill: rgb(244, 101, 0); fill-opacity: 1;"/></g></g><g id="shape-19238422-6354-80ab-8006-96468d642802"><g class="fills" id="fills-19238422-6354-80ab-8006-96468d642802"><path d="M28.542394638061523,24.355379104614258L17.860265731811523,32.23796463012695C18.41805076599121,32.4280891418457,18.987409591674805,32.61842727661133,19.576101303100586,32.80995559692383L30.256559371948242,24.927370071411133C29.7004451751709,24.73582649230957,29.130971908569336,24.54417610168457,28.542394638061523,24.353960037231445Z" class="cls-3" style="fill: rgb(244, 101, 0); fill-opacity: 1;"/></g></g><g id="shape-19238422-6354-80ab-8006-96468d642803"><g class="fills" id="fills-19238422-6354-80ab-8006-96468d642803"><path d="M7.82160758972168,39.64738845825195L0.38796064257621765,45.13298416137695L-0.0000016954209058894776,45.83455276489258C0.27876874804496765,46.10725784301758,0.56648850440979,46.3666877746582,0.855642557144165,46.62623977661133L9.153768539428711,40.50246047973633C8.711149215698242,40.23262405395508,8.267095565795898,39.94514846801758,7.82160758972168,39.64738845825195Z" class="cls-3" style="fill: rgb(244, 101, 0); fill-opacity: 1;"/></g></g><g id="shape-19238422-6354-80ab-8006-96468d642804"><g class="fills" id="fills-19238422-6354-80ab-8006-96468d642804"><path d="M31.100393295288086,25.22380256652832L20.45967674255371,33.07680130004883C21.08380699157715,33.2537727355957,21.681211471557617,33.42622756958008,22.252126693725586,33.59282302856445L32.75846862792969,25.838396072387695C32.22443389892578,25.632051467895508,31.6727352142334,25.427156448364258,31.10170555114746,25.222246170043945Z" class="cls-3" style="fill: rgb(244, 101, 0); fill-opacity: 1;"/></g></g><g id="shape-19238422-6354-80ab-8006-96468d642805"><g class="fills" id="fills-19238422-6354-80ab-8006-96468d642805"><path d="M9.84699821472168,40.90938186645508L1.4265577793121338,47.12306594848633C1.8160688877105713,47.45338821411133,2.2143003940582275,47.77177810668945,2.62135910987854,48.07991409301758L11.277975082397461,41.69069290161133C10.801458358764648,41.4473762512207,10.325063705444336,41.1850471496582,9.845571517944336,40.90938186645508Z" class="cls-3" style="fill: rgb(244, 101, 0); fill-opacity: 1;"/></g></g><g id="shape-19238422-6354-80ab-8006-96468d642806"><g class="fills" id="fills-19238422-6354-80ab-8006-96468d642806"><path d="M12.02741813659668,42.05778884887695L3.244062662124634,48.53981399536133C3.670339822769165,48.84364700317383,4.104131698608398,49.13542556762695,4.549612045288086,49.4153938293457L13.585248947143555,42.74611282348633C13.067441940307617,42.53834915161133,12.548086166381836,42.3054084777832,12.025983810424805,42.05778884887695Z" class="cls-3" style="fill: rgb(244, 101, 0); fill-opacity: 1;"/></g></g><g id="shape-19238422-6354-80ab-8006-96468d642807"><g class="fills" id="fills-19238422-6354-80ab-8006-96468d642807"><path d="M34.74567413330078,26.646303176879883C34.366424560546875,26.482698440551758,33.97272491455078,26.320512771606445,33.57139587402344,26.158327102661133L23.14154624938965,33.85536575317383C23.765562057495117,34.04103469848633,24.35138511657715,34.22078323364258,24.9030818939209,34.39332962036133L35.155723571777344,26.826143264770508C35.02003479003906,26.765764236450195,34.88422393798828,26.703828811645508,34.74567413330078,26.644990921020508Z" class="cls-3" style="fill: rgb(244, 101, 0); fill-opacity: 1;"/></g></g><g id="shape-19238422-6354-80ab-8006-96468d642808"><g class="fills" id="fills-19238422-6354-80ab-8006-96468d642808"><path d="M35.91554260253906,27.185945510864258L25.773290634155273,34.67055130004883C26.37689781188965,34.86650466918945,26.926923751831055,35.07295608520508,27.422651290893555,35.29109573364258L37.353797912597656,27.96129035949707C36.89936065673828,27.693010330200195,36.41998291015625,27.43358039855957,35.91398620605469,27.184404373168945Z" class="cls-3" style="fill: rgb(244, 101, 0); fill-opacity: 1;"/></g></g><g id="shape-19238422-6354-80ab-8006-96468d642809"><g class="fills" id="fills-19238422-6354-80ab-8006-96468d642809"><path d="M14.408437728881836,43.06007766723633L5.238546371459961,49.82829666137695C5.704679489135742,50.10243606567383,6.17976188659668,50.3649787902832,6.66499137878418,50.61391067504883L16.125577926635742,43.6321907043457C15.557531356811523,43.46559524536133,14.985189437866211,43.27251052856445,14.408437728881836,43.0616340637207Z" class="cls-3" style="fill: rgb(244, 101, 0); fill-opacity: 1;"/></g></g><g id="shape-19238422-6354-80ab-8006-96468d64280a"><g class="fills" id="fills-19238422-6354-80ab-8006-96468d64280a"><path d="M17.02992057800293,43.88124465942383L7.399633407592773,50.9885139465332C7.907171249389648,51.23170852661133,8.42939567565918,51.46025466918945,8.957464218139648,51.67695999145508L18.97273063659668,44.28520584106445C18.3309383392334,44.17912673950195,17.683408737182617,44.0479621887207,17.028364181518555,43.88124465942383Z" class="cls-3" style="fill: rgb(244, 101, 0); fill-opacity: 1;"/></g></g><g id="shape-19238422-6354-80ab-8006-96468d64280b"><g class="fills" id="fills-19238422-6354-80ab-8006-96468d64280b"><path d="M38.0323486328125,28.381593704223633L28.176511764526367,35.65520095825195C28.65302085876465,35.90581130981445,29.06891441345215,36.1697883605957,29.418569564819336,36.44832229614258C29.44661521911621,36.47050857543945,29.470365524291992,36.4955940246582,29.498289108276367,36.51909255981445L39.29064178466797,29.29106330871582C38.899810791015625,28.977083206176758,38.48081970214844,28.673372268676758,38.0323486328125,28.381593704223633Z" class="cls-3" style="fill: rgb(244, 101, 0); fill-opacity: 1;"/></g></g><g id="shape-19238422-6354-80ab-8006-96468d64280c"><g class="fills" id="fills-19238422-6354-80ab-8006-96468d64280c"><path d="M39.86907196044922,29.783449172973633L30.010244369506836,37.05861282348633C30.311094284057617,37.45814895629883,30.51325798034668,37.92262649536133,30.6120662689209,38.45329666137695L40.91792297363281,30.847810745239258C40.59929656982422,30.480730056762695,40.2496337890625,30.127016067504883,39.867515563964844,29.783449172973633Z" class="cls-3" style="fill: rgb(244, 101, 0); fill-opacity: 1;"/></g></g><g id="shape-19238422-6354-80ab-8006-96468d64280d"><g class="fills" id="fills-19238422-6354-80ab-8006-96468d64280d"><path d="M22.284582138061523,44.5654182434082C21.5395565032959,44.5654182434082,20.785703659057617,44.51814651489258,20.02302360534668,44.4312629699707L9.776350021362305,51.99379348754883C9.939962387084961,52.05574417114258,10.097845077514648,52.1236457824707,10.263128280639648,52.1826057434082C10.65992546081543,52.3256721496582,11.05970573425293,52.4598274230957,11.460920333862305,52.5880012512207L22.334707260131836,44.56386184692383C22.318471908569336,44.56386184692383,22.302244186401367,44.56386184692383,22.2860164642334,44.56386184692383Z" class="cls-3" style="fill: rgb(244, 101, 0); fill-opacity: 1;"/></g></g><g id="shape-19238422-6354-80ab-8006-96468d6477f9"><g class="fills" id="fills-19238422-6354-80ab-8006-96468d6477f9"><path d="M41.384056091308594,31.424211502075195L30.68880271911621,39.31706619262695C30.685819625854492,40.17070388793945,30.498456954956055,40.92119216918945,30.131254196166992,41.56669998168945L42.151161193847656,32.6950569152832C41.92680358886719,32.2409553527832,41.671783447265625,31.816362380981445,41.38262939453125,31.42277717590332Z" class="cls-3" style="fill: rgb(244, 101, 0); fill-opacity: 1;"/></g></g><g id="shape-19238422-6354-80ab-8006-96468d6477fa"><g class="fills" id="fills-19238422-6354-80ab-8006-96468d6477fa"><path d="M23.646223068237305,44.51518630981445L12.338644027709961,52.86067581176758C12.944997787475586,53.03908157348633,13.555768966674805,53.20125198364258,14.172269821166992,53.34578323364258L27.0140438079834,43.86800003051758C26.038938522338867,44.21156692504883,24.914777755737305,44.4267463684082,23.64765739440918,44.51387405395508Z" class="cls-3" style="fill: rgb(244, 101, 0); fill-opacity: 1;"/></g></g><g id="shape-19238422-6354-80ab-8006-96468d6477fb"><g class="fills" id="fills-19238422-6354-80ab-8006-96468d6477fb"><path d="M42.460960388183594,33.38637161254883L15.129827499389648,53.55653762817383C15.792150497436523,53.69520950317383,16.460439682006836,53.81596755981445,17.133146286010742,53.91621780395508L42.924224853515625,34.88118362426758C42.80011749267578,34.35503005981445,42.646888732910156,33.85536575317383,42.460960388183594,33.38493728637695Z" class="cls-3" style="fill: rgb(244, 101, 0); fill-opacity: 1;"/></g></g><g id="shape-19238422-6354-80ab-8006-96468d6477fc"><g class="fills" id="fills-19238422-6354-80ab-8006-96468d6477fc"><path d="M43.086524963378906,35.68312454223633L18.187849044799805,54.0591926574707C18.920942306518555,54.14760208129883,19.66011619567871,54.21550369262695,20.405141830444336,54.2610969543457L43.26934814453125,37.38582229614258C43.23689270019531,36.79188919067383,43.177940368652344,36.2227668762207,43.086524963378906,35.68169021606445Z" class="cls-3" style="fill: rgb(244, 101, 0); fill-opacity: 1;"/></g></g><g id="shape-19238422-6354-80ab-8006-96468d6477fd"><g class="fills" id="fills-19238422-6354-80ab-8006-96468d6477fd"><path d="M43.297393798828125,38.37370681762695C43.297393798828125,38.3441047668457,43.297393798828125,38.31618118286133,43.297393798828125,38.28670120239258L21.5824031829834,54.31288528442383C21.977766036987305,54.3245735168457,22.37599754333496,54.33342361450195,22.774343490600586,54.33342361450195C23.21541404724121,54.33342361450195,23.64765739440918,54.3245735168457,24.0769100189209,54.30989456176758L43.21326446533203,40.18693923950195C43.270904541015625,39.59871292114258,43.300376892089844,38.9942512512207,43.300376892089844,38.37370681762695Z" class="cls-3" style="fill: rgb(244, 101, 0); fill-opacity: 1;"/></g></g><g id="shape-19238422-6354-80ab-8006-96468d6477fe"><g class="fills" id="fills-19238422-6354-80ab-8006-96468d6477fe"><path d="M28.36530113220215,53.90297317504883L42.54497528076172,43.43767166137695C42.77660369873047,42.72548294067383,42.953582763671875,41.98103713989258,43.07769775390625,41.20558547973633L25.416471481323242,54.24055862426758C26.437284469604492,54.16981887817383,27.42110252380371,54.05775833129883,28.36530113220215,53.90297317504883Z" class="cls-3" style="fill: rgb(244, 101, 0); fill-opacity: 1;"/></g></g><g id="shape-19238422-6354-80ab-8006-96468d6477ff"><g class="fills" id="fills-19238422-6354-80ab-8006-96468d6477ff"><path d="M34.829811096191406,51.8891487121582L39.742095947265625,48.2641487121582C40.709800720214844,47.19966506958008,41.47857666015625,46.01893997192383,42.05079650878906,44.72163772583008L30.06777000427246,53.56547927856445C31.796728134155273,53.16438674926758,33.38391876220703,52.60564041137695,34.829811096191406,51.8891487121582Z" class="cls-3" style="fill: rgb(244, 101, 0); fill-opacity: 1;"/></g></g><g id="shape-19238422-6354-80ab-8006-96468d647800"><g class="fills" id="fills-19238422-6354-80ab-8006-96468d647800"><path d="M19.205801010131836,21.358232498168945C18.848859786987305,21.22862434387207,18.51686668395996,21.09294319152832,18.207059860229492,20.95152473449707L8.34382438659668,28.229555130004883C8.789434432983398,28.506776809692383,9.261411666870117,28.770631790161133,9.761434555053711,29.022783279418945L19.837209701538086,21.586870193481445C19.62026023864746,21.510255813598633,19.407835006713867,21.433534622192383,19.205801010131836,21.358232498168945Z" class="cls-3" style="fill: rgb(244, 101, 0); fill-opacity: 1;"/></g></g><g id="shape-19238422-6354-80ab-8006-96468d647801"><g class="fills" id="fills-19238422-6354-80ab-8006-96468d647801"><path d="M30.10309410095215,12.9685697555542C30.39809226989746,13.088152885437012,30.696195602416992,13.214770317077637,30.9957332611084,13.351885795593262L39.950103759765625,6.742983818054199C39.520843505859375,6.436404228210449,39.08717346191406,6.143069267272949,38.64598083496094,5.867403984069824L29.389219284057617,12.698870658874512C29.62812614440918,12.78442668914795,29.867040634155273,12.8728666305542,30.104642868041992,12.9685697555542Z" class="cls-3" style="fill: rgb(244, 101, 0); fill-opacity: 1;"/></g></g><g id="shape-19238422-6354-80ab-8006-96468d647802"><g class="fills" id="fills-19238422-6354-80ab-8006-96468d647802"><path d="M33.193695068359375,14.487017631530762L41.76020812988281,8.164172172546387C41.370689392089844,7.829546928405762,40.97401428222656,7.509600639343262,40.571128845214844,7.203021049499512L31.750905990600586,13.713000297546387C32.225990295410156,13.948931694030762,32.708465576171875,14.208361625671387,33.193695068359375,14.487017631530762Z" class="cls-3" style="fill: rgb(244, 101, 0); fill-opacity: 1;"/></g></g><g id="shape-19238422-6354-80ab-8006-96468d647803"><g class="fills" id="fills-19238422-6354-80ab-8006-96468d647803"><path d="M20.68092918395996,21.883195877075195L10.513860702514648,29.38688850402832C11.011014938354492,29.612550735473633,11.537534713745117,29.839540481567383,12.081953048706055,30.067949295043945L22.390790939331055,22.459596633911133C21.785871505737305,22.260530471801758,21.21651268005371,22.067445755004883,20.68092918395996,21.883195877075195Z" class="cls-3" style="fill: rgb(244, 101, 0); fill-opacity: 1;"/></g></g><g id="shape-19238422-6354-80ab-8006-96468d647804"><g class="fills" id="fills-19238422-6354-80ab-8006-96468d647804"><path d="M25.62734031677246,0.7401912808418274C29.275609970092773,0.7401912808418274,32.72899627685547,1.3120448589324951,35.98773956298828,2.44873309135437C39.24505615234375,3.588289976119995,42.20867919921875,5.427996635437012,44.8818359375,7.966784477233887L39.60497283935547,16.267885208129883C36.9981689453125,14.249651908874512,34.52287292480469,12.769640922546387,32.17729949951172,11.823046684265137C29.831716537475586,10.881243705749512,27.452131271362305,10.406512260437012,25.043188095092773,10.406512260437012C23.675580978393555,10.406512260437012,22.387807846069336,10.56714153289795,21.1826229095459,10.88708782196045C19.975881576538086,11.20703411102295,18.99922752380371,11.736178398132324,18.251218795776367,12.473437309265137C17.50189781188965,13.211901664733887,17.127180099487305,14.252764701843262,17.127180099487305,15.597216606140137C17.127180099487305,16.81492805480957,17.46932029724121,17.76127815246582,18.153959274291992,18.433626174926758C18.838361740112305,19.105730056762695,19.879934310913086,19.698488235473633,21.281431198120117,20.211397171020508C22.681379318237305,20.724428176879883,24.392560958862305,21.30082893371582,26.412221908569336,21.942140579223633C30.517667770385742,23.094942092895508,33.98585510253906,24.281633377075195,36.821189880371094,25.499345779418945C39.65509796142578,26.715639114379883,41.78980255126953,28.20903205871582,43.22352600097656,29.969255447387695C44.65605163574219,31.73234748840332,45.37303161621094,34.1501350402832,45.37303161621094,37.22676467895508C45.37303161621094,42.22722244262695,43.515663146972656,46.13685989379883,39.80259704589844,48.9570198059082C36.08953857421875,51.7772102355957,31.10481071472168,53.18645095825195,24.8499813079834,53.18645095825195C20.483304977416992,53.18645095825195,16.31294059753418,52.46852493286133,12.340200424194336,51.03706741333008C8.365903854370117,49.6071662902832,4.944860458374023,47.48857498168945,2.0786116123199463,44.68928909301758L6.769765853881836,36.19185256958008C9.832319259643555,38.66847610473633,12.844755172729492,40.48909378051758,15.809812545776367,41.66109085083008C18.773435592651367,42.8331184387207,21.6251277923584,43.41987991333008,24.36153221130371,43.41987991333008C26.903417587280273,43.41987991333008,28.93764305114746,42.98060989379883,30.47041130065918,42.10051345825195C32.00032043457031,41.22182083129883,32.767303466796875,39.90242385864258,32.767303466796875,38.14506912231445C32.767303466796875,36.92305374145508,32.34258270263672,35.97670364379883,31.497190475463867,35.3013801574707C30.650373458862305,34.62627029418945,29.427526473999023,34.0322151184082,27.832815170288086,33.51619338989258C26.23512840270996,33.0030403137207,24.29816246032715,32.42378616333008,22.017507553100586,31.78245735168457C18.238088607788086,30.560457229614258,15.078275680541992,29.37065315246582,12.537824630737305,28.214998245239258C9.996053695678711,27.05766487121582,8.090116500854492,25.59672737121582,6.819890975952148,23.82756233215332C5.549665451049805,22.061601638793945,4.914068222045898,19.794191360473633,4.914068222045898,17.030092239379883C4.914068222045898,13.6880521774292,5.776884078979492,10.813342094421387,7.50440788269043,8.401522636413574C9.230382919311523,5.989718437194824,11.64088249206543,4.110156059265137,14.737325668334961,2.76117205619812C17.830915451049805,1.4122951030731201,21.464262008666992,0.7370784878730774,25.634626388549805,0.7370784878730774M25.62734031677246,0.00004844849172513932C21.37428092956543,0.00004844849172513932,17.60822868347168,0.7017543911933899,14.433492660522461,2.0860774517059326C11.22785758972168,3.4836299419403076,8.69038200378418,5.464999198913574,6.895193099975586,7.973940849304199C5.084959030151367,10.5007963180542,4.16749382019043,13.5496244430542,4.16749382019043,17.032960891723633C4.16749382019043,19.943117141723633,4.854879379272461,22.374147415161133,6.212102890014648,24.261110305786133C7.553098678588867,26.125993728637695,9.575628280639648,27.682756423950195,12.225034713745117,28.889970779418945C14.780172348022461,30.05327033996582,17.996076583862305,31.265016555786133,21.78432273864746,32.48869705200195C24.05769920349121,33.12990188598633,26.005048751831055,33.71071243286133,27.601186752319336,34.2238655090332C29.10280418395996,34.7087287902832,30.257993698120117,35.26604080200195,31.031057357788086,35.8821907043457C31.697797775268555,36.4144172668457,32.02239990234375,37.15443801879883,32.02239990234375,38.14662551879883C32.02239990234375,39.63270950317383,31.39241600036621,40.7162971496582,30.09712791442871,41.45918655395508C28.686918258666992,42.26863479614258,26.755918502807617,42.67976760864258,24.357236862182617,42.67976760864258C21.725370407104492,42.67976760864258,18.940275192260742,42.10634231567383,16.07832145690918,40.97407913208008C13.194295883178711,39.83452224731445,10.217184066772461,38.03325271606445,7.231603622436523,35.61677932739258L6.543981552124023,35.0611457824707L6.117704391479492,35.83516311645508L1.4265577793121338,44.33247756958008L1.1551802158355713,44.82484817504883L1.55794358253479,45.21843338012695C4.488988876342773,48.08131790161133,8.031042098999023,50.2734260559082,12.086484909057617,51.73292922973633C16.125577926635742,53.18800735473633,20.418386459350586,53.92659378051758,24.848424911499023,53.92659378051758C31.24061393737793,53.92659378051758,36.42284393310547,52.45228958129883,40.2496337890625,49.54680252075195C44.139678955078125,46.59392166137695,46.11351776123047,42.4483528137207,46.11351776123047,37.22819900512695C46.11351776123047,33.99391555786133,45.33460235595703,31.39628791809082,43.79753875732422,29.504793167114258C42.289825439453125,27.65471076965332,40.04163360595703,26.078737258911133,37.11332702636719,24.82127571105957C34.26176452636719,23.596162796020508,30.72865867614746,22.387392044067383,26.612714767456055,21.23161506652832C24.64484214782715,20.606523513793945,22.929121017456055,20.028688430786133,21.535146713256836,19.518632888793945C20.24128532409668,19.045351028442383,19.277997970581055,18.504274368286133,18.67176628112793,17.908662796020508C18.13033103942871,17.376527786254883,17.866239547729492,16.621721267700195,17.866239547729492,15.600085258483887C17.866239547729492,14.4502592086792,18.161359786987305,13.601183891296387,18.769140243530273,13.002581596374512C19.422636032104492,12.359835624694824,20.29737663269043,11.88940715789795,21.37141227722168,11.603472709655762C22.510129928588867,11.301302909851074,23.745031356811523,11.146533012390137,25.0417537689209,11.146533012390137C27.34162712097168,11.146533012390137,29.648771286010742,11.604907035827637,31.899953842163086,12.508761405944824C34.171783447265625,13.42419719696045,36.61175537109375,14.88501262664795,39.150543212890625,16.851686477661133L39.792335510253906,17.34849739074707L40.227439880371094,16.66301155090332L45.504295349121094,8.361788749694824L45.83032989501953,7.848635673522949L45.389259338378906,7.429995536804199C42.65416717529297,4.831072807312012,39.57251739501953,2.9190547466278076,36.229637145996094,1.7498958110809326C32.90465545654297,0.5898159146308899,29.33742332458496,0.00004844849172513932,25.62734031677246,0.00004844849172513932L25.62734031677246,0.00004844849172513932L25.62734031677246,0.00004844849172513932" class="cls-2" style="fill: rgb(235, 235, 235); fill-opacity: 1;"/></g></g></g></svg>