<svg width="46.114" xmlns="http://www.w3.org/2000/svg" height="54.333" id="screenshot-cf4ba2eb-8ec7-80f0-8006-975c4869e245" viewBox="0 0 46.114 54.333" xmlns:xlink="http://www.w3.org/1999/xlink" fill="none" version="1.1"><g id="shape-cf4ba2eb-8ec7-80f0-8006-975c4869e245" rx="0" ry="0"><g id="shape-cf4ba2eb-8ec7-80f0-8006-975c486a21ef"><defs style="fill: rgb(244, 101, 0); fill-opacity: 1;"><g id="shape-cf4ba2eb-8ec7-80f0-8006-975c486a221b"><style>#shape-{ .cls-1 {
        fill: none;
      }

      .cls-2 {
        fill: #f3ede9;
      }

      .cls-3 {
        fill: #f46500;
      } }</style></g></defs></g><g id="shape-cf4ba2eb-8ec7-80f0-8006-975c486a21f0"><g class="fills" id="fills-cf4ba2eb-8ec7-80f0-8006-975c486a21f0"><path d="M37.53077697753906,17.413330078125L38.26387023925781,16.260498046875L37.12062072753906,17.103759765625C37.25785827636719,17.20703125,37.39366149902344,17.3056640625,37.53077697753906,17.413330078125Z" class="cls-1" style="fill: rgb(244, 101, 0); fill-opacity: 1;"/></g></g><g id="shape-cf4ba2eb-8ec7-80f0-8006-975c486a21f1"><g class="fills" id="fills-cf4ba2eb-8ec7-80f0-8006-975c486a21f1"><path d="M37.72541809082031,50.10400390625C38.4749755859375,49.534912109375,39.14326477050781,48.920166015625,39.742095947265625,48.26416015625L34.82981872558594,51.88916015625C35.8682861328125,51.374755859375,36.834442138671875,50.780517578125,37.727081298828125,50.10400390625Z" class="cls-1" style="fill: rgb(244, 101, 0); fill-opacity: 1;"/></g></g><g id="shape-cf4ba2eb-8ec7-80f0-8006-975c486a21f2"><g class="fills" id="fills-cf4ba2eb-8ec7-80f0-8006-975c486a21f2"><path d="M12.65740966796875,3.907958984375C9.5623779296875,5.257080078125,7.15032958984375,7.13818359375,5.424346923828125,9.548583984375C5.15728759765625,9.92138671875,4.912506103515625,10.307861328125,4.686859130859375,10.704345703125L15.106201171875,3.016357421875C14.25653076171875,3.271240234375,13.439178466796875,3.567626953125,12.65740966796875,3.90966796875Z" class="cls-3" style="fill: rgb(244, 101, 0); fill-opacity: 1;"/></g></g><g id="shape-cf4ba2eb-8ec7-80f0-8006-975c486a21f3"><g class="fills" id="fills-cf4ba2eb-8ec7-80f0-8006-975c486a21f3"><path d="M16.994476318359375,2.541748046875L3.974273681640625,12.150390625C3.65411376953125,12.9140625,3.400390625,13.713134765625,3.2144775390625,14.549072265625L20.1484375,2.05224609375C19.05389404296875,2.159912109375,18.00347900390625,2.32470703125,16.994476318359375,2.541748046875Z" class="cls-3" style="fill: rgb(244, 101, 0); fill-opacity: 1;"/></g></g><g id="shape-cf4ba2eb-8ec7-80f0-8006-975c486a21f4"><g class="fills" id="fills-cf4ba2eb-8ec7-80f0-8006-975c486a21f4"><path d="M23.5546875,1.884033203125C22.86578369140625,1.884033203125,22.197479248046875,1.908935546875,21.53802490234375,1.946044921875L3.01971435546875,15.61328125C2.925445556640625,16.250244140625,2.866485595703125,16.90478515625,2.844268798828125,17.581298828125L24.0989990234375,1.894287109375C23.9176025390625,1.891357421875,23.737640380859375,1.884033203125,23.5546875,1.884033203125Z" class="cls-3" style="fill: rgb(244, 101, 0); fill-opacity: 1;"/></g></g><g id="shape-cf4ba2eb-8ec7-80f0-8006-975c486a21f5"><g class="fills" id="fills-cf4ba2eb-8ec7-80f0-8006-975c486a21f5"><path d="M25.29095458984375,1.932861328125L2.844268798828125,18.5C2.855987548828125,19.105712890625,2.8944091796875,19.689697265625,2.9681396484375,20.246826171875L27.530426025390625,2.1201171875C26.79278564453125,2.031494140625,26.04632568359375,1.970947265625,25.29248046875,1.932861328125Z" class="cls-3" style="fill: rgb(244, 101, 0); fill-opacity: 1;"/></g></g><g id="shape-cf4ba2eb-8ec7-80f0-8006-975c486a21f6"><g class="fills" id="fills-cf4ba2eb-8ec7-80f0-8006-975c486a21f6"><path d="M28.574859619140625,2.267333984375L3.100982666015625,21.06787109375C3.207061767578125,21.6044921875,3.35028076171875,22.111572265625,3.51995849609375,22.5966796875L30.55755615234375,2.643310546875C29.9039306640625,2.497314453125,29.2431640625,2.3720703125,28.574859619140625,2.268798828125Z" class="cls-3" style="fill: rgb(244, 101, 0); fill-opacity: 1;"/></g></g><g id="shape-cf4ba2eb-8ec7-80f0-8006-975c486a21f7"><g class="fills" id="fills-cf4ba2eb-8ec7-80f0-8006-975c486a21f7"><path d="M15.051666259765625,16.74560546875C15.051666259765625,15.9716796875,15.179962158203125,15.302490234375,15.427703857421875,14.730224609375L3.80316162109375,23.310302734375C4.006622314453125,23.7744140625,4.244232177734375,24.21240234375,4.512725830078125,24.625244140625L15.05609130859375,16.84423828125C15.05609130859375,16.81201171875,15.052978515625,16.781005859375,15.052978515625,16.7470703125Z" class="cls-3" style="fill: rgb(244, 101, 0); fill-opacity: 1;"/></g></g><g id="shape-cf4ba2eb-8ec7-80f0-8006-975c486a21f8"><g class="fills" id="fills-cf4ba2eb-8ec7-80f0-8006-975c486a21f8"><path d="M19.10687255859375,12.033935546875C20.0806884765625,11.774658203125,21.11029052734375,11.625732421875,22.1900634765625,11.575439453125L33.28367614746094,3.387939453125C32.695098876953125,3.197509765625,32.10198974609375,3.019287109375,31.501739501953125,2.864501953125L19.05987548828125,12.04736328125C19.076080322265625,12.042724609375,19.09063720703125,12.036865234375,19.10687255859375,12.033935546875Z" class="cls-3" style="fill: rgb(244, 101, 0); fill-opacity: 1;"/></g></g><g id="shape-cf4ba2eb-8ec7-80f0-8006-975c486a21f9"><g class="fills" id="fills-cf4ba2eb-8ec7-80f0-8006-975c486a21f9"><path d="M25.683319091796875,11.755126953125L35.75169372558594,4.323974609375C35.2235107421875,4.088134765625,34.6851806640625,3.871337890625,34.14076232910156,3.675048828125L23.45147705078125,11.563720703125C24.19781494140625,11.5830078125,24.94293212890625,11.643310546875,25.683319091796875,11.755126953125Z" class="cls-3" style="fill: rgb(244, 101, 0); fill-opacity: 1;"/></g></g><g id="shape-cf4ba2eb-8ec7-80f0-8006-975c486a21fa"><g class="fills" id="fills-cf4ba2eb-8ec7-80f0-8006-975c486a21fa"><path d="M15.134246826171875,17.702392578125L4.937591552734375,25.228271484375C5.234130859375,25.614501953125,5.558624267578125,25.9873046875,5.9171142578125,26.3427734375L15.699188232421875,19.123291015625C15.421966552734375,18.720947265625,15.233062744140625,18.247802734375,15.134246826171875,17.702392578125Z" class="cls-3" style="fill: rgb(244, 101, 0); fill-opacity: 1;"/></g></g><g id="shape-cf4ba2eb-8ec7-80f0-8006-975c486a21fb"><g class="fills" id="fills-cf4ba2eb-8ec7-80f0-8006-975c486a21fb"><path d="M28.53045654296875,12.412841796875L37.95860290527344,5.45458984375C37.483642578125,5.178955078125,37.002716064453125,4.92236328125,36.51295471191406,4.68359375L26.68646240234375,11.936767578125C27.30322265625,12.0634765625,27.91839599609375,12.22412109375,28.53045654296875,12.414306640625Z" class="cls-3" style="fill: rgb(244, 101, 0); fill-opacity: 1;"/></g></g><g id="shape-cf4ba2eb-8ec7-80f0-8006-975c486a21fc"><g class="fills" id="fills-cf4ba2eb-8ec7-80f0-8006-975c486a21fc"><path d="M16.18896484375,19.68212890625L6.4659423828125,26.858642578125C6.84063720703125,27.187255859375,7.249267578125,27.49853515625,7.68292236328125,27.799072265625L17.46502685546875,20.580078125C16.957611083984375,20.2998046875,16.53265380859375,20.00048828125,16.18896484375,19.683837890625Z" class="cls-3" style="fill: rgb(244, 101, 0); fill-opacity: 1;"/></g></g><g id="shape-cf4ba2eb-8ec7-80f0-8006-975c486a21fd"><g class="fills" id="fills-cf4ba2eb-8ec7-80f0-8006-975c486a21fd"><path d="M24.33648681640625,23.089111328125C23.96331787109375,22.970947265625,23.60491943359375,22.856201171875,23.25372314453125,22.7412109375L12.88153076171875,30.396728515625C13.4053955078125,30.609130859375,13.9453125,30.8212890625,14.5087890625,31.034912109375L25.01214599609375,23.28369140625C24.7864990234375,23.218994140625,24.566558837890625,23.154052734375,24.33648681640625,23.089111328125Z" class="cls-3" style="fill: rgb(244, 101, 0); fill-opacity: 1;"/></g></g><g id="shape-cf4ba2eb-8ec7-80f0-8006-975c486a21fe"><g class="fills" id="fills-cf4ba2eb-8ec7-80f0-8006-975c486a21fe"><path d="M4.691253662109375,37.3388671875L3.81341552734375,38.927978515625L5.310760498046875,37.823974609375C5.104278564453125,37.663330078125,4.899261474609375,37.50537109375,4.691253662109375,37.3388671875Z" class="cls-3" style="fill: rgb(244, 101, 0); fill-opacity: 1;"/></g></g><g id="shape-cf4ba2eb-8ec7-80f0-8006-975c486a21ff"><g class="fills" id="fills-cf4ba2eb-8ec7-80f0-8006-975c486a21ff"><path d="M35.22064208984375,15.7490234375L41.565460205078125,11.065673828125L42.80763244628906,9.112060546875C42.6483154296875,8.96044921875,42.487457275390625,8.812744140625,42.32658386230469,8.66552734375L33.887054443359375,14.893798828125C34.326690673828125,15.160888671875,34.77229309082031,15.44677734375,35.22064208984375,15.74755859375Z" class="cls-3" style="fill: rgb(244, 101, 0); fill-opacity: 1;"/></g></g><g id="shape-cf4ba2eb-8ec7-80f0-8006-975c486a2200"><g class="fills" id="fills-cf4ba2eb-8ec7-80f0-8006-975c486a2200"><path d="M5.9171142578125,38.294189453125L2.9578857421875,40.478759765625L1.245147705078125,43.58203125L7.174072265625,39.20654296875C6.75665283203125,38.914794921875,6.3375244140625,38.612548828125,5.9171142578125,38.29541015625Z" class="cls-3" style="fill: rgb(244, 101, 0); fill-opacity: 1;"/></g></g><g id="shape-cf4ba2eb-8ec7-80f0-8006-975c486a2201"><g class="fills" id="fills-cf4ba2eb-8ec7-80f0-8006-975c486a2201"><path d="M25.90765380859375,23.541748046875L15.3363037109375,31.34326171875C15.877838134765625,31.543701171875,16.43536376953125,31.744384765625,17.01226806640625,31.944580078125L27.67193603515625,24.078369140625C27.098175048828125,23.8984375,26.512481689453125,23.719970703125,25.90911865234375,23.541748046875Z" class="cls-3" style="fill: rgb(244, 101, 0); fill-opacity: 1;"/></g></g><g id="shape-cf4ba2eb-8ec7-80f0-8006-975c486a2202"><g class="fills" id="fills-cf4ba2eb-8ec7-80f0-8006-975c486a2202"><path d="M37.12062072753906,17.103759765625L38.26387023925781,16.260498046875L40.46504211425781,12.797607421875L35.866851806640625,16.191162109375C36.28118896484375,16.481689453125,36.698883056640625,16.786865234375,37.11918640136719,17.10546875Z" class="cls-3" style="fill: rgb(244, 101, 0); fill-opacity: 1;"/></g></g><g id="shape-cf4ba2eb-8ec7-80f0-8006-975c486a2203"><g class="fills" id="fills-cf4ba2eb-8ec7-80f0-8006-975c486a2203"><path d="M28.54241943359375,24.355224609375L17.86029052734375,32.238037109375C18.418060302734375,32.427978515625,18.9874267578125,32.618408203125,19.57611083984375,32.809814453125L30.256561279296875,24.927490234375C29.700439453125,24.73583984375,29.1309814453125,24.544189453125,28.54241943359375,24.35400390625Z" class="cls-3" style="fill: rgb(244, 101, 0); fill-opacity: 1;"/></g></g><g id="shape-cf4ba2eb-8ec7-80f0-8006-975c486a2204"><g class="fills" id="fills-cf4ba2eb-8ec7-80f0-8006-975c486a2204"><path d="M7.82159423828125,39.6474609375L0.387969970703125,45.133056640625L0,45.834716796875C0.278778076171875,46.107177734375,0.566497802734375,46.36669921875,0.85565185546875,46.626220703125L9.153778076171875,40.50244140625C8.711151123046875,40.232666015625,8.26708984375,39.945068359375,7.82159423828125,39.6474609375Z" class="cls-3" style="fill: rgb(244, 101, 0); fill-opacity: 1;"/></g></g><g id="shape-cf4ba2eb-8ec7-80f0-8006-975c486a2205"><g class="fills" id="fills-cf4ba2eb-8ec7-80f0-8006-975c486a2205"><path d="M31.10040283203125,25.223876953125L20.459686279296875,33.076904296875C21.08380126953125,33.253662109375,21.68121337890625,33.42626953125,22.25213623046875,33.5927734375L32.75848388671875,25.83837890625C32.22442626953125,25.632080078125,31.6727294921875,25.427001953125,31.101715087890625,25.222412109375Z" class="cls-3" style="fill: rgb(244, 101, 0); fill-opacity: 1;"/></g></g><g id="shape-cf4ba2eb-8ec7-80f0-8006-975c486a2206"><g class="fills" id="fills-cf4ba2eb-8ec7-80f0-8006-975c486a2206"><path d="M9.84698486328125,40.909423828125L1.426544189453125,47.123046875C1.816070556640625,47.453369140625,2.21429443359375,47.771728515625,2.621368408203125,48.079833984375L11.277984619140625,41.690673828125C10.80145263671875,41.447509765625,10.3250732421875,41.18505859375,9.8455810546875,40.909423828125Z" class="cls-3" style="fill: rgb(244, 101, 0); fill-opacity: 1;"/></g></g><g id="shape-cf4ba2eb-8ec7-80f0-8006-975c486a2207"><g class="fills" id="fills-cf4ba2eb-8ec7-80f0-8006-975c486a2207"><path d="M12.02740478515625,42.057861328125L3.244049072265625,48.539794921875C3.67034912109375,48.843505859375,4.1041259765625,49.135498046875,4.54962158203125,49.415283203125L13.58526611328125,42.74609375C13.06744384765625,42.538330078125,12.548095703125,42.305419921875,12.0260009765625,42.057861328125Z" class="cls-3" style="fill: rgb(244, 101, 0); fill-opacity: 1;"/></g></g><g id="shape-cf4ba2eb-8ec7-80f0-8006-975c486a2208"><g class="fills" id="fills-cf4ba2eb-8ec7-80f0-8006-975c486a2208"><path d="M34.74568176269531,26.646240234375C34.366424560546875,26.482666015625,33.97273254394531,26.320556640625,33.57139587402344,26.158447265625L23.14154052734375,33.855224609375C23.76556396484375,34.041015625,24.35137939453125,34.220947265625,24.903076171875,34.393310546875L35.155731201171875,26.826171875C35.02003479003906,26.765869140625,34.88423156738281,26.703857421875,34.74568176269531,26.64501953125Z" class="cls-3" style="fill: rgb(244, 101, 0); fill-opacity: 1;"/></g></g><g id="shape-cf4ba2eb-8ec7-80f0-8006-975c486a2209"><g class="fills" id="fills-cf4ba2eb-8ec7-80f0-8006-975c486a2209"><path d="M35.91554260253906,27.185791015625L25.7733154296875,34.670654296875C26.37689208984375,34.866455078125,26.92694091796875,35.072998046875,27.42266845703125,35.291259765625L37.35380554199219,27.961181640625C36.89936828613281,27.693115234375,36.41998291015625,27.43359375,35.91398620605469,27.184326171875Z" class="cls-3" style="fill: rgb(244, 101, 0); fill-opacity: 1;"/></g></g><g id="shape-cf4ba2eb-8ec7-80f0-8006-975c486a220a"><g class="fills" id="fills-cf4ba2eb-8ec7-80f0-8006-975c486a220a"><path d="M14.408447265625,43.06005859375L5.238555908203125,49.828369140625C5.704681396484375,50.102294921875,6.17974853515625,50.364990234375,6.66497802734375,50.614013671875L16.125579833984375,43.632080078125C15.55755615234375,43.465576171875,14.985198974609375,43.2724609375,14.408447265625,43.061767578125Z" class="cls-3" style="fill: rgb(244, 101, 0); fill-opacity: 1;"/></g></g><g id="shape-cf4ba2eb-8ec7-80f0-8006-975c486a220b"><g class="fills" id="fills-cf4ba2eb-8ec7-80f0-8006-975c486a220b"><path d="M17.0299072265625,43.881103515625L7.399627685546875,50.988525390625C7.90716552734375,51.231689453125,8.42938232421875,51.460205078125,8.95745849609375,51.677001953125L18.97271728515625,44.28515625C18.3309326171875,44.17919921875,17.68341064453125,44.048095703125,17.02838134765625,43.881103515625Z" class="cls-3" style="fill: rgb(244, 101, 0); fill-opacity: 1;"/></g></g><g id="shape-cf4ba2eb-8ec7-80f0-8006-975c486a220c"><g class="fills" id="fills-cf4ba2eb-8ec7-80f0-8006-975c486a220c"><path d="M38.0323486328125,28.381591796875L28.176513671875,35.6552734375C28.65301513671875,35.90576171875,29.06890869140625,36.169677734375,29.4185791015625,36.448486328125C29.446624755859375,36.470458984375,29.470367431640625,36.49560546875,29.498291015625,36.51904296875L39.2906494140625,29.291015625C38.899810791015625,28.97705078125,38.48081970214844,28.67333984375,38.0323486328125,28.381591796875Z" class="cls-3" style="fill: rgb(244, 101, 0); fill-opacity: 1;"/></g></g><g id="shape-cf4ba2eb-8ec7-80f0-8006-975c486a220d"><g class="fills" id="fills-cf4ba2eb-8ec7-80f0-8006-975c486a220d"><path d="M39.86907958984375,29.783447265625L30.01025390625,37.05859375C30.31109619140625,37.458251953125,30.51324462890625,37.922607421875,30.612060546875,38.453369140625L40.91792297363281,30.847900390625C40.59930419921875,30.480712890625,40.2496337890625,30.127197265625,39.867523193359375,29.783447265625Z" class="cls-3" style="fill: rgb(244, 101, 0); fill-opacity: 1;"/></g></g><g id="shape-cf4ba2eb-8ec7-80f0-8006-975c486a220e"><g class="fills" id="fills-cf4ba2eb-8ec7-80f0-8006-975c486a220e"><path d="M22.28460693359375,44.5654296875C21.53955078125,44.5654296875,20.78570556640625,44.518310546875,20.02301025390625,44.431396484375L9.7763671875,51.993896484375C9.939971923828125,52.055908203125,10.09783935546875,52.123779296875,10.26312255859375,52.1826171875C10.659912109375,52.32568359375,11.0596923828125,52.459716796875,11.4609375,52.588134765625L22.334716796875,44.563720703125C22.3184814453125,44.563720703125,22.30224609375,44.563720703125,22.2860107421875,44.563720703125Z" class="cls-3" style="fill: rgb(244, 101, 0); fill-opacity: 1;"/></g></g><g id="shape-cf4ba2eb-8ec7-80f0-8006-975c486a220f"><g class="fills" id="fills-cf4ba2eb-8ec7-80f0-8006-975c486a220f"><path d="M41.384063720703125,31.424072265625L30.688812255859375,39.317138671875C30.685821533203125,40.170654296875,30.49847412109375,40.921142578125,30.131256103515625,41.566650390625L42.15116882324219,32.695068359375C41.92680358886719,32.240966796875,41.671783447265625,31.81640625,41.38262939453125,31.4228515625Z" class="cls-3" style="fill: rgb(244, 101, 0); fill-opacity: 1;"/></g></g><g id="shape-cf4ba2eb-8ec7-80f0-8006-975c486a2210"><g class="fills" id="fills-cf4ba2eb-8ec7-80f0-8006-975c486a2210"><path d="M23.646240234375,44.51513671875L12.338653564453125,52.860595703125C12.94500732421875,53.0390625,13.5557861328125,53.201416015625,14.172271728515625,53.345947265625L27.0140380859375,43.867919921875C26.0389404296875,44.211669921875,24.914794921875,44.4267578125,23.64764404296875,44.513916015625Z" class="cls-3" style="fill: rgb(244, 101, 0); fill-opacity: 1;"/></g></g><g id="shape-cf4ba2eb-8ec7-80f0-8006-975c486a2211"><g class="fills" id="fills-cf4ba2eb-8ec7-80f0-8006-975c486a2211"><path d="M42.460968017578125,33.386474609375L15.12982177734375,53.556396484375C15.79217529296875,53.695068359375,16.46044921875,53.81591796875,17.133148193359375,53.916259765625L42.924224853515625,34.881103515625C42.80012512207031,34.35498046875,42.64689636230469,33.855224609375,42.460968017578125,33.385009765625Z" class="cls-3" style="fill: rgb(244, 101, 0); fill-opacity: 1;"/></g></g><g id="shape-cf4ba2eb-8ec7-80f0-8006-975c486a2212"><g class="fills" id="fills-cf4ba2eb-8ec7-80f0-8006-975c486a2212"><path d="M43.08653259277344,35.68310546875L18.1878662109375,54.059326171875C18.92095947265625,54.147705078125,19.660125732421875,54.215576171875,20.4051513671875,54.260986328125L43.26934814453125,37.385986328125C43.23689270019531,36.791748046875,43.177947998046875,36.222900390625,43.08653259277344,35.681640625Z" class="cls-3" style="fill: rgb(244, 101, 0); fill-opacity: 1;"/></g></g><g id="shape-cf4ba2eb-8ec7-80f0-8006-975c486a2213"><g class="fills" id="fills-cf4ba2eb-8ec7-80f0-8006-975c486a2213"><path d="M43.297393798828125,38.373779296875C43.297393798828125,38.343994140625,43.297393798828125,38.316162109375,43.297393798828125,38.286865234375L21.5823974609375,54.312744140625C21.977783203125,54.324462890625,22.376007080078125,54.33349609375,22.77435302734375,54.33349609375C23.215423583984375,54.33349609375,23.64764404296875,54.324462890625,24.076904296875,54.309814453125L43.21327209472656,40.18701171875C43.270904541015625,39.598876953125,43.300384521484375,38.994384765625,43.300384521484375,38.373779296875Z" class="cls-3" style="fill: rgb(244, 101, 0); fill-opacity: 1;"/></g></g><g id="shape-cf4ba2eb-8ec7-80f0-8006-975c486a2214"><g class="fills" id="fills-cf4ba2eb-8ec7-80f0-8006-975c486a2214"><path d="M28.36529541015625,53.903076171875L42.54498291015625,43.437744140625C42.776611328125,42.725341796875,42.953582763671875,41.981201171875,43.07769775390625,41.20556640625L25.416473388671875,54.240478515625C26.437286376953125,54.169677734375,27.421112060546875,54.057861328125,28.36529541015625,53.903076171875Z" class="cls-3" style="fill: rgb(244, 101, 0); fill-opacity: 1;"/></g></g><g id="shape-cf4ba2eb-8ec7-80f0-8006-975c486a2215"><g class="fills" id="fills-cf4ba2eb-8ec7-80f0-8006-975c486a2215"><path d="M34.82981872558594,51.88916015625L39.742095947265625,48.26416015625C40.709808349609375,47.19970703125,41.47857666015625,46.018798828125,42.05079650878906,44.7216796875L30.067779541015625,53.5654296875C31.7967529296875,53.164306640625,33.38392639160156,52.605712890625,34.82981872558594,51.88916015625Z" class="cls-3" style="fill: rgb(244, 101, 0); fill-opacity: 1;"/></g></g><g id="shape-cf4ba2eb-8ec7-80f0-8006-975c486a2216"><g class="fills" id="fills-cf4ba2eb-8ec7-80f0-8006-975c486a2216"><path d="M19.205810546875,21.358154296875C18.848876953125,21.228759765625,18.516876220703125,21.093017578125,18.207061767578125,20.951416015625L8.34381103515625,28.229736328125C8.7894287109375,28.5068359375,9.26141357421875,28.770751953125,9.761444091796875,29.022705078125L19.83721923828125,21.5869140625C19.620269775390625,21.51025390625,19.4078369140625,21.43359375,19.205810546875,21.358154296875Z" class="cls-3" style="fill: rgb(244, 101, 0); fill-opacity: 1;"/></g></g><g id="shape-cf4ba2eb-8ec7-80f0-8006-975c486a2217"><g class="fills" id="fills-cf4ba2eb-8ec7-80f0-8006-975c486a2217"><path d="M30.10308837890625,12.968505859375C30.398101806640625,13.088134765625,30.696197509765625,13.21484375,30.9957275390625,13.351806640625L39.950103759765625,6.742919921875C39.520843505859375,6.436279296875,39.08717346191406,6.14306640625,38.64598083496094,5.867431640625L29.38922119140625,12.698974609375C29.62811279296875,12.784423828125,29.8670654296875,12.872802734375,30.104644775390625,12.968505859375Z" class="cls-3" style="fill: rgb(244, 101, 0); fill-opacity: 1;"/></g></g><g id="shape-cf4ba2eb-8ec7-80f0-8006-975c486a2218"><g class="fills" id="fills-cf4ba2eb-8ec7-80f0-8006-975c486a2218"><path d="M33.193695068359375,14.487060546875L41.76020812988281,8.164306640625C41.370697021484375,7.82958984375,40.97401428222656,7.509521484375,40.571136474609375,7.202880859375L31.75091552734375,13.713134765625C32.22601318359375,13.948974609375,32.708465576171875,14.208251953125,33.193695068359375,14.487060546875Z" class="cls-3" style="fill: rgb(244, 101, 0); fill-opacity: 1;"/></g></g><g id="shape-cf4ba2eb-8ec7-80f0-8006-975c486a2219"><g class="fills" id="fills-cf4ba2eb-8ec7-80f0-8006-975c486a2219"><path d="M20.680938720703125,21.883056640625L10.51385498046875,29.386962890625C11.011016845703125,29.612548828125,11.53753662109375,29.839599609375,12.08197021484375,30.068115234375L22.39080810546875,22.459716796875C21.785888671875,22.260498046875,21.216522216796875,22.067626953125,20.680938720703125,21.883056640625Z" class="cls-3" style="fill: rgb(244, 101, 0); fill-opacity: 1;"/></g></g><g id="shape-cf4ba2eb-8ec7-80f0-8006-975c486a221a"><g class="fills" id="fills-cf4ba2eb-8ec7-80f0-8006-975c486a221a"><path d="M25.627349853515625,0.740234375C29.275634765625,0.740234375,32.72900390625,1.31201171875,35.98774719238281,2.44873046875C39.24505615234375,3.588134765625,42.20867919921875,5.427978515625,44.8818359375,7.966796875L39.60498046875,16.267822265625C36.9981689453125,14.249755859375,34.52287292480469,12.769775390625,32.17730712890625,11.822998046875C29.83172607421875,10.881103515625,27.4521484375,10.406494140625,25.043212890625,10.406494140625C23.67559814453125,10.406494140625,22.3878173828125,10.567138671875,21.1826171875,10.886962890625C19.97589111328125,11.20703125,18.999237060546875,11.736083984375,18.251220703125,12.473388671875C17.50189208984375,13.2119140625,17.127197265625,14.252685546875,17.127197265625,15.59716796875C17.127197265625,16.81494140625,17.469329833984375,17.76123046875,18.153961181640625,18.43359375C18.83837890625,19.105712890625,19.87994384765625,19.698486328125,21.28143310546875,20.21142578125C22.681396484375,20.724365234375,24.392578125,21.30078125,26.4122314453125,21.942138671875C30.517669677734375,23.094970703125,33.98585510253906,24.281494140625,36.821197509765625,25.499267578125C39.65510559082031,26.715576171875,41.78981018066406,28.208984375,43.22352600097656,29.96923828125C44.65605163574219,31.732421875,45.37303161621094,34.150146484375,45.37303161621094,37.226806640625C45.37303161621094,42.227294921875,43.51567077636719,46.136962890625,39.80259704589844,48.95703125C36.08953857421875,51.777099609375,31.10479736328125,53.1865234375,24.8499755859375,53.1865234375C20.483306884765625,53.1865234375,16.31292724609375,52.468505859375,12.3402099609375,51.037109375C8.36590576171875,49.607177734375,4.944854736328125,47.488525390625,2.07861328125,44.689208984375L6.769775390625,36.19189453125C9.83233642578125,38.66845703125,12.844757080078125,40.489013671875,15.809814453125,41.6611328125C18.7734375,42.833251953125,21.6251220703125,43.419921875,24.361541748046875,43.419921875C26.9034423828125,43.419921875,28.937652587890625,42.980712890625,30.47039794921875,42.1005859375C32.00030517578125,41.221923828125,32.767303466796875,39.902587890625,32.767303466796875,38.14501953125C32.767303466796875,36.923095703125,32.34259033203125,35.976806640625,31.4971923828125,35.301513671875C30.650390625,34.626220703125,29.42755126953125,34.0322265625,27.83282470703125,33.516357421875C26.235137939453125,33.003173828125,24.29815673828125,32.423828125,22.01751708984375,31.782470703125C18.23809814453125,30.560302734375,15.078277587890625,29.37060546875,12.537841796875,28.215087890625C9.996063232421875,27.0576171875,8.090118408203125,25.5966796875,6.81988525390625,23.82763671875C5.549652099609375,22.061767578125,4.9140625,19.794189453125,4.9140625,17.030029296875C4.9140625,13.688232421875,5.776885986328125,10.813232421875,7.50439453125,8.401611328125C9.23040771484375,5.98974609375,11.640869140625,4.110107421875,14.737335205078125,2.76123046875C17.8309326171875,1.412353515625,21.464263916015625,0.737060546875,25.6346435546875,0.737060546875M25.627349853515625,0C21.374267578125,0,17.60821533203125,0.701904296875,14.433502197265625,2.086181640625C11.22784423828125,3.483642578125,8.69036865234375,5.465087890625,6.89520263671875,7.973876953125C5.0849609375,10.500732421875,4.16748046875,13.549560546875,4.16748046875,17.032958984375C4.16748046875,19.943115234375,4.854888916015625,22.374267578125,6.21209716796875,24.260986328125C7.5531005859375,26.1259765625,9.57562255859375,27.682861328125,12.22503662109375,28.889892578125C14.780181884765625,30.05322265625,17.99609375,31.264892578125,21.784332275390625,32.48876953125C24.057708740234375,33.1298828125,26.00506591796875,33.710693359375,27.6011962890625,34.223876953125C29.102813720703125,34.708740234375,30.25799560546875,35.26611328125,31.03106689453125,35.882080078125C31.69781494140625,36.414306640625,32.02239990234375,37.154541015625,32.02239990234375,38.146728515625C32.02239990234375,39.632568359375,31.392425537109375,40.71630859375,30.097137451171875,41.459228515625C28.686920166015625,42.268798828125,26.75592041015625,42.679931640625,24.35723876953125,42.679931640625C21.725372314453125,42.679931640625,18.940277099609375,42.106201171875,16.07830810546875,40.97412109375C13.194305419921875,39.83447265625,10.217193603515625,38.033203125,7.231597900390625,35.616943359375L6.543975830078125,35.061279296875L6.117706298828125,35.835205078125L1.426544189453125,44.33251953125L1.155181884765625,44.824951171875L1.557952880859375,45.218505859375C4.488983154296875,48.081298828125,8.031036376953125,50.2734375,12.08648681640625,51.73291015625C16.125579833984375,53.18798828125,20.41839599609375,53.926513671875,24.84844970703125,53.926513671875C31.2406005859375,53.926513671875,36.4228515625,52.452392578125,40.2496337890625,49.546875C44.139678955078125,46.593994140625,46.113525390625,42.448486328125,46.113525390625,37.228271484375C46.113525390625,33.993896484375,45.33460998535156,31.396240234375,43.79754638671875,29.504638671875C42.289825439453125,27.65478515625,40.04164123535156,26.078857421875,37.11332702636719,24.8212890625C34.26176452636719,23.59619140625,30.728668212890625,22.387451171875,26.61273193359375,21.231689453125C24.64483642578125,20.606689453125,22.92913818359375,20.028564453125,21.53515625,19.518798828125C20.24127197265625,19.04541015625,19.27801513671875,18.504150390625,18.6717529296875,17.90869140625C18.130340576171875,17.376708984375,17.866241455078125,16.621826171875,17.866241455078125,15.60009765625C17.866241455078125,14.450439453125,18.161376953125,13.601318359375,18.7691650390625,13.002685546875C19.422637939453125,12.35986328125,20.29736328125,11.889404296875,21.37139892578125,11.603515625C22.5101318359375,11.30126953125,23.74505615234375,11.146484375,25.041748046875,11.146484375C27.34161376953125,11.146484375,29.648773193359375,11.60498046875,31.89996337890625,12.5087890625C34.171783447265625,13.424072265625,36.61175537109375,14.885009765625,39.150543212890625,16.851806640625L39.79234313964844,17.348388671875L40.227447509765625,16.6630859375L45.504302978515625,8.36181640625L45.83033752441406,7.8486328125L45.38926696777344,7.429931640625C42.6541748046875,4.8310546875,39.57252502441406,2.919189453125,36.229644775390625,1.749755859375C32.9046630859375,0.58984375,29.337432861328125,0,25.627349853515625,0L25.627349853515625,0L25.627349853515625,0" class="cls-2" style="fill: rgb(16, 16, 16); fill-opacity: 1;"/></g></g></g></svg>