<svg xmlns="http://www.w3.org/2000/svg" version="1.1" xmlns:xlink="http://www.w3.org/1999/xlink" width="1000" height="1000"><style>
    #light-icon {
      display: inline;
    }
    #dark-icon {
      display: none;
    }

    @media (prefers-color-scheme: dark) {
      #light-icon {
        display: none;
      }
      #dark-icon {
        display: inline;
      }
    }
  </style><g id="light-icon"><svg xmlns="http://www.w3.org/2000/svg" version="1.1" xmlns:xlink="http://www.w3.org/1999/xlink" width="1000" height="1000"><g><g transform="matrix(18.40502088969871,0,0,18.40502088969871,75.63543334621681,-5.684341886080802e-14)"><svg xmlns="http://www.w3.org/2000/svg" version="1.1" xmlns:xlink="http://www.w3.org/1999/xlink" width="46.114" height="54.333"><svg width="46.114" xmlns="http://www.w3.org/2000/svg" height="54.333" id="screenshot-cf4ba2eb-8ec7-80f0-8006-975c4869e245" viewBox="0 0 46.114 54.333" xmlns:xlink="http://www.w3.org/1999/xlink" fill="none" version="1.1"><g id="shape-cf4ba2eb-8ec7-80f0-8006-975c4869e245" rx="0" ry="0"><g id="shape-cf4ba2eb-8ec7-80f0-8006-975c486a21ef"><defs style="fill: rgb(244, 101, 0); fill-opacity: 1;"><g id="shape-cf4ba2eb-8ec7-80f0-8006-975c486a221b"><style>#shape-{ .cls-1 {
        fill: none;
      }

      .cls-2 {
        fill: #f3ede9;
      }

      .cls-3 {
        fill: #f46500;
      } }</style></g></defs></g><g id="shape-cf4ba2eb-8ec7-80f0-8006-975c486a21f0"><g class="fills" id="fills-cf4ba2eb-8ec7-80f0-8006-975c486a21f0"><path d="M37.53077697753906,17.413330078125L38.26387023925781,16.260498046875L37.12062072753906,17.103759765625C37.25785827636719,17.20703125,37.39366149902344,17.3056640625,37.53077697753906,17.413330078125Z" class="cls-1" style="fill: rgb(244, 101, 0); fill-opacity: 1;"></path></g></g><g id="shape-cf4ba2eb-8ec7-80f0-8006-975c486a21f1"><g class="fills" id="fills-cf4ba2eb-8ec7-80f0-8006-975c486a21f1"><path d="M37.72541809082031,50.10400390625C38.4749755859375,49.534912109375,39.14326477050781,48.920166015625,39.742095947265625,48.26416015625L34.82981872558594,51.88916015625C35.8682861328125,51.374755859375,36.834442138671875,50.780517578125,37.727081298828125,50.10400390625Z" class="cls-1" style="fill: rgb(244, 101, 0); fill-opacity: 1;"></path></g></g><g id="shape-cf4ba2eb-8ec7-80f0-8006-975c486a21f2"><g class="fills" id="fills-cf4ba2eb-8ec7-80f0-8006-975c486a21f2"><path d="M12.65740966796875,3.907958984375C9.5623779296875,5.257080078125,7.15032958984375,7.13818359375,5.424346923828125,9.548583984375C5.15728759765625,9.92138671875,4.912506103515625,10.307861328125,4.686859130859375,10.704345703125L15.106201171875,3.016357421875C14.25653076171875,3.271240234375,13.439178466796875,3.567626953125,12.65740966796875,3.90966796875Z" class="cls-3" style="fill: rgb(244, 101, 0); fill-opacity: 1;"></path></g></g><g id="shape-cf4ba2eb-8ec7-80f0-8006-975c486a21f3"><g class="fills" id="fills-cf4ba2eb-8ec7-80f0-8006-975c486a21f3"><path d="M16.994476318359375,2.541748046875L3.974273681640625,12.150390625C3.65411376953125,12.9140625,3.400390625,13.713134765625,3.2144775390625,14.549072265625L20.1484375,2.05224609375C19.05389404296875,2.159912109375,18.00347900390625,2.32470703125,16.994476318359375,2.541748046875Z" class="cls-3" style="fill: rgb(244, 101, 0); fill-opacity: 1;"></path></g></g><g id="shape-cf4ba2eb-8ec7-80f0-8006-975c486a21f4"><g class="fills" id="fills-cf4ba2eb-8ec7-80f0-8006-975c486a21f4"><path d="M23.5546875,1.884033203125C22.86578369140625,1.884033203125,22.197479248046875,1.908935546875,21.53802490234375,1.946044921875L3.01971435546875,15.61328125C2.925445556640625,16.250244140625,2.866485595703125,16.90478515625,2.844268798828125,17.581298828125L24.0989990234375,1.894287109375C23.9176025390625,1.891357421875,23.737640380859375,1.884033203125,23.5546875,1.884033203125Z" class="cls-3" style="fill: rgb(244, 101, 0); fill-opacity: 1;"></path></g></g><g id="shape-cf4ba2eb-8ec7-80f0-8006-975c486a21f5"><g class="fills" id="fills-cf4ba2eb-8ec7-80f0-8006-975c486a21f5"><path d="M25.29095458984375,1.932861328125L2.844268798828125,18.5C2.855987548828125,19.105712890625,2.8944091796875,19.689697265625,2.9681396484375,20.246826171875L27.530426025390625,2.1201171875C26.79278564453125,2.031494140625,26.04632568359375,1.970947265625,25.29248046875,1.932861328125Z" class="cls-3" style="fill: rgb(244, 101, 0); fill-opacity: 1;"></path></g></g><g id="shape-cf4ba2eb-8ec7-80f0-8006-975c486a21f6"><g class="fills" id="fills-cf4ba2eb-8ec7-80f0-8006-975c486a21f6"><path d="M28.574859619140625,2.267333984375L3.100982666015625,21.06787109375C3.207061767578125,21.6044921875,3.35028076171875,22.111572265625,3.51995849609375,22.5966796875L30.55755615234375,2.643310546875C29.9039306640625,2.497314453125,29.2431640625,2.3720703125,28.574859619140625,2.268798828125Z" class="cls-3" style="fill: rgb(244, 101, 0); fill-opacity: 1;"></path></g></g><g id="shape-cf4ba2eb-8ec7-80f0-8006-975c486a21f7"><g class="fills" id="fills-cf4ba2eb-8ec7-80f0-8006-975c486a21f7"><path d="M15.051666259765625,16.74560546875C15.051666259765625,15.9716796875,15.179962158203125,15.302490234375,15.427703857421875,14.730224609375L3.80316162109375,23.310302734375C4.006622314453125,23.7744140625,4.244232177734375,24.21240234375,4.512725830078125,24.625244140625L15.05609130859375,16.84423828125C15.05609130859375,16.81201171875,15.052978515625,16.781005859375,15.052978515625,16.7470703125Z" class="cls-3" style="fill: rgb(244, 101, 0); fill-opacity: 1;"></path></g></g><g id="shape-cf4ba2eb-8ec7-80f0-8006-975c486a21f8"><g class="fills" id="fills-cf4ba2eb-8ec7-80f0-8006-975c486a21f8"><path d="M19.10687255859375,12.033935546875C20.0806884765625,11.774658203125,21.11029052734375,11.625732421875,22.1900634765625,11.575439453125L33.28367614746094,3.387939453125C32.695098876953125,3.197509765625,32.10198974609375,3.019287109375,31.501739501953125,2.864501953125L19.05987548828125,12.04736328125C19.076080322265625,12.042724609375,19.09063720703125,12.036865234375,19.10687255859375,12.033935546875Z" class="cls-3" style="fill: rgb(244, 101, 0); fill-opacity: 1;"></path></g></g><g id="shape-cf4ba2eb-8ec7-80f0-8006-975c486a21f9"><g class="fills" id="fills-cf4ba2eb-8ec7-80f0-8006-975c486a21f9"><path d="M25.683319091796875,11.755126953125L35.75169372558594,4.323974609375C35.2235107421875,4.088134765625,34.6851806640625,3.871337890625,34.14076232910156,3.675048828125L23.45147705078125,11.563720703125C24.19781494140625,11.5830078125,24.94293212890625,11.643310546875,25.683319091796875,11.755126953125Z" class="cls-3" style="fill: rgb(244, 101, 0); fill-opacity: 1;"></path></g></g><g id="shape-cf4ba2eb-8ec7-80f0-8006-975c486a21fa"><g class="fills" id="fills-cf4ba2eb-8ec7-80f0-8006-975c486a21fa"><path d="M15.134246826171875,17.702392578125L4.937591552734375,25.228271484375C5.234130859375,25.614501953125,5.558624267578125,25.9873046875,5.9171142578125,26.3427734375L15.699188232421875,19.123291015625C15.421966552734375,18.720947265625,15.233062744140625,18.247802734375,15.134246826171875,17.702392578125Z" class="cls-3" style="fill: rgb(244, 101, 0); fill-opacity: 1;"></path></g></g><g id="shape-cf4ba2eb-8ec7-80f0-8006-975c486a21fb"><g class="fills" id="fills-cf4ba2eb-8ec7-80f0-8006-975c486a21fb"><path d="M28.53045654296875,12.412841796875L37.95860290527344,5.45458984375C37.483642578125,5.178955078125,37.002716064453125,4.92236328125,36.51295471191406,4.68359375L26.68646240234375,11.936767578125C27.30322265625,12.0634765625,27.91839599609375,12.22412109375,28.53045654296875,12.414306640625Z" class="cls-3" style="fill: rgb(244, 101, 0); fill-opacity: 1;"></path></g></g><g id="shape-cf4ba2eb-8ec7-80f0-8006-975c486a21fc"><g class="fills" id="fills-cf4ba2eb-8ec7-80f0-8006-975c486a21fc"><path d="M16.18896484375,19.68212890625L6.4659423828125,26.858642578125C6.84063720703125,27.187255859375,7.249267578125,27.49853515625,7.68292236328125,27.799072265625L17.46502685546875,20.580078125C16.957611083984375,20.2998046875,16.53265380859375,20.00048828125,16.18896484375,19.683837890625Z" class="cls-3" style="fill: rgb(244, 101, 0); fill-opacity: 1;"></path></g></g><g id="shape-cf4ba2eb-8ec7-80f0-8006-975c486a21fd"><g class="fills" id="fills-cf4ba2eb-8ec7-80f0-8006-975c486a21fd"><path d="M24.33648681640625,23.089111328125C23.96331787109375,22.970947265625,23.60491943359375,22.856201171875,23.25372314453125,22.7412109375L12.88153076171875,30.396728515625C13.4053955078125,30.609130859375,13.9453125,30.8212890625,14.5087890625,31.034912109375L25.01214599609375,23.28369140625C24.7864990234375,23.218994140625,24.566558837890625,23.154052734375,24.33648681640625,23.089111328125Z" class="cls-3" style="fill: rgb(244, 101, 0); fill-opacity: 1;"></path></g></g><g id="shape-cf4ba2eb-8ec7-80f0-8006-975c486a21fe"><g class="fills" id="fills-cf4ba2eb-8ec7-80f0-8006-975c486a21fe"><path d="M4.691253662109375,37.3388671875L3.81341552734375,38.927978515625L5.310760498046875,37.823974609375C5.104278564453125,37.663330078125,4.899261474609375,37.50537109375,4.691253662109375,37.3388671875Z" class="cls-3" style="fill: rgb(244, 101, 0); fill-opacity: 1;"></path></g></g><g id="shape-cf4ba2eb-8ec7-80f0-8006-975c486a21ff"><g class="fills" id="fills-cf4ba2eb-8ec7-80f0-8006-975c486a21ff"><path d="M35.22064208984375,15.7490234375L41.565460205078125,11.065673828125L42.80763244628906,9.112060546875C42.6483154296875,8.96044921875,42.487457275390625,8.812744140625,42.32658386230469,8.66552734375L33.887054443359375,14.893798828125C34.326690673828125,15.160888671875,34.77229309082031,15.44677734375,35.22064208984375,15.74755859375Z" class="cls-3" style="fill: rgb(244, 101, 0); fill-opacity: 1;"></path></g></g><g id="shape-cf4ba2eb-8ec7-80f0-8006-975c486a2200"><g class="fills" id="fills-cf4ba2eb-8ec7-80f0-8006-975c486a2200"><path d="M5.9171142578125,38.294189453125L2.9578857421875,40.478759765625L1.245147705078125,43.58203125L7.174072265625,39.20654296875C6.75665283203125,38.914794921875,6.3375244140625,38.612548828125,5.9171142578125,38.29541015625Z" class="cls-3" style="fill: rgb(244, 101, 0); fill-opacity: 1;"></path></g></g><g id="shape-cf4ba2eb-8ec7-80f0-8006-975c486a2201"><g class="fills" id="fills-cf4ba2eb-8ec7-80f0-8006-975c486a2201"><path d="M25.90765380859375,23.541748046875L15.3363037109375,31.34326171875C15.877838134765625,31.543701171875,16.43536376953125,31.744384765625,17.01226806640625,31.944580078125L27.67193603515625,24.078369140625C27.098175048828125,23.8984375,26.512481689453125,23.719970703125,25.90911865234375,23.541748046875Z" class="cls-3" style="fill: rgb(244, 101, 0); fill-opacity: 1;"></path></g></g><g id="shape-cf4ba2eb-8ec7-80f0-8006-975c486a2202"><g class="fills" id="fills-cf4ba2eb-8ec7-80f0-8006-975c486a2202"><path d="M37.12062072753906,17.103759765625L38.26387023925781,16.260498046875L40.46504211425781,12.797607421875L35.866851806640625,16.191162109375C36.28118896484375,16.481689453125,36.698883056640625,16.786865234375,37.11918640136719,17.10546875Z" class="cls-3" style="fill: rgb(244, 101, 0); fill-opacity: 1;"></path></g></g><g id="shape-cf4ba2eb-8ec7-80f0-8006-975c486a2203"><g class="fills" id="fills-cf4ba2eb-8ec7-80f0-8006-975c486a2203"><path d="M28.54241943359375,24.355224609375L17.86029052734375,32.238037109375C18.418060302734375,32.427978515625,18.9874267578125,32.618408203125,19.57611083984375,32.809814453125L30.256561279296875,24.927490234375C29.700439453125,24.73583984375,29.1309814453125,24.544189453125,28.54241943359375,24.35400390625Z" class="cls-3" style="fill: rgb(244, 101, 0); fill-opacity: 1;"></path></g></g><g id="shape-cf4ba2eb-8ec7-80f0-8006-975c486a2204"><g class="fills" id="fills-cf4ba2eb-8ec7-80f0-8006-975c486a2204"><path d="M7.82159423828125,39.6474609375L0.387969970703125,45.133056640625L0,45.834716796875C0.278778076171875,46.107177734375,0.566497802734375,46.36669921875,0.85565185546875,46.626220703125L9.153778076171875,40.50244140625C8.711151123046875,40.232666015625,8.26708984375,39.945068359375,7.82159423828125,39.6474609375Z" class="cls-3" style="fill: rgb(244, 101, 0); fill-opacity: 1;"></path></g></g><g id="shape-cf4ba2eb-8ec7-80f0-8006-975c486a2205"><g class="fills" id="fills-cf4ba2eb-8ec7-80f0-8006-975c486a2205"><path d="M31.10040283203125,25.223876953125L20.459686279296875,33.076904296875C21.08380126953125,33.253662109375,21.68121337890625,33.42626953125,22.25213623046875,33.5927734375L32.75848388671875,25.83837890625C32.22442626953125,25.632080078125,31.6727294921875,25.427001953125,31.101715087890625,25.222412109375Z" class="cls-3" style="fill: rgb(244, 101, 0); fill-opacity: 1;"></path></g></g><g id="shape-cf4ba2eb-8ec7-80f0-8006-975c486a2206"><g class="fills" id="fills-cf4ba2eb-8ec7-80f0-8006-975c486a2206"><path d="M9.84698486328125,40.909423828125L1.426544189453125,47.123046875C1.816070556640625,47.453369140625,2.21429443359375,47.771728515625,2.621368408203125,48.079833984375L11.277984619140625,41.690673828125C10.80145263671875,41.447509765625,10.3250732421875,41.18505859375,9.8455810546875,40.909423828125Z" class="cls-3" style="fill: rgb(244, 101, 0); fill-opacity: 1;"></path></g></g><g id="shape-cf4ba2eb-8ec7-80f0-8006-975c486a2207"><g class="fills" id="fills-cf4ba2eb-8ec7-80f0-8006-975c486a2207"><path d="M12.02740478515625,42.057861328125L3.244049072265625,48.539794921875C3.67034912109375,48.843505859375,4.1041259765625,49.135498046875,4.54962158203125,49.415283203125L13.58526611328125,42.74609375C13.06744384765625,42.538330078125,12.548095703125,42.305419921875,12.0260009765625,42.057861328125Z" class="cls-3" style="fill: rgb(244, 101, 0); fill-opacity: 1;"></path></g></g><g id="shape-cf4ba2eb-8ec7-80f0-8006-975c486a2208"><g class="fills" id="fills-cf4ba2eb-8ec7-80f0-8006-975c486a2208"><path d="M34.74568176269531,26.646240234375C34.366424560546875,26.482666015625,33.97273254394531,26.320556640625,33.57139587402344,26.158447265625L23.14154052734375,33.855224609375C23.76556396484375,34.041015625,24.35137939453125,34.220947265625,24.903076171875,34.393310546875L35.155731201171875,26.826171875C35.02003479003906,26.765869140625,34.88423156738281,26.703857421875,34.74568176269531,26.64501953125Z" class="cls-3" style="fill: rgb(244, 101, 0); fill-opacity: 1;"></path></g></g><g id="shape-cf4ba2eb-8ec7-80f0-8006-975c486a2209"><g class="fills" id="fills-cf4ba2eb-8ec7-80f0-8006-975c486a2209"><path d="M35.91554260253906,27.185791015625L25.7733154296875,34.670654296875C26.37689208984375,34.866455078125,26.92694091796875,35.072998046875,27.42266845703125,35.291259765625L37.35380554199219,27.961181640625C36.89936828613281,27.693115234375,36.41998291015625,27.43359375,35.91398620605469,27.184326171875Z" class="cls-3" style="fill: rgb(244, 101, 0); fill-opacity: 1;"></path></g></g><g id="shape-cf4ba2eb-8ec7-80f0-8006-975c486a220a"><g class="fills" id="fills-cf4ba2eb-8ec7-80f0-8006-975c486a220a"><path d="M14.408447265625,43.06005859375L5.238555908203125,49.828369140625C5.704681396484375,50.102294921875,6.17974853515625,50.364990234375,6.66497802734375,50.614013671875L16.125579833984375,43.632080078125C15.55755615234375,43.465576171875,14.985198974609375,43.2724609375,14.408447265625,43.061767578125Z" class="cls-3" style="fill: rgb(244, 101, 0); fill-opacity: 1;"></path></g></g><g id="shape-cf4ba2eb-8ec7-80f0-8006-975c486a220b"><g class="fills" id="fills-cf4ba2eb-8ec7-80f0-8006-975c486a220b"><path d="M17.0299072265625,43.881103515625L7.399627685546875,50.988525390625C7.90716552734375,51.231689453125,8.42938232421875,51.460205078125,8.95745849609375,51.677001953125L18.97271728515625,44.28515625C18.3309326171875,44.17919921875,17.68341064453125,44.048095703125,17.02838134765625,43.881103515625Z" class="cls-3" style="fill: rgb(244, 101, 0); fill-opacity: 1;"></path></g></g><g id="shape-cf4ba2eb-8ec7-80f0-8006-975c486a220c"><g class="fills" id="fills-cf4ba2eb-8ec7-80f0-8006-975c486a220c"><path d="M38.0323486328125,28.381591796875L28.176513671875,35.6552734375C28.65301513671875,35.90576171875,29.06890869140625,36.169677734375,29.4185791015625,36.448486328125C29.446624755859375,36.470458984375,29.470367431640625,36.49560546875,29.498291015625,36.51904296875L39.2906494140625,29.291015625C38.899810791015625,28.97705078125,38.48081970214844,28.67333984375,38.0323486328125,28.381591796875Z" class="cls-3" style="fill: rgb(244, 101, 0); fill-opacity: 1;"></path></g></g><g id="shape-cf4ba2eb-8ec7-80f0-8006-975c486a220d"><g class="fills" id="fills-cf4ba2eb-8ec7-80f0-8006-975c486a220d"><path d="M39.86907958984375,29.783447265625L30.01025390625,37.05859375C30.31109619140625,37.458251953125,30.51324462890625,37.922607421875,30.612060546875,38.453369140625L40.91792297363281,30.847900390625C40.59930419921875,30.480712890625,40.2496337890625,30.127197265625,39.867523193359375,29.783447265625Z" class="cls-3" style="fill: rgb(244, 101, 0); fill-opacity: 1;"></path></g></g><g id="shape-cf4ba2eb-8ec7-80f0-8006-975c486a220e"><g class="fills" id="fills-cf4ba2eb-8ec7-80f0-8006-975c486a220e"><path d="M22.28460693359375,44.5654296875C21.53955078125,44.5654296875,20.78570556640625,44.518310546875,20.02301025390625,44.431396484375L9.7763671875,51.993896484375C9.939971923828125,52.055908203125,10.09783935546875,52.123779296875,10.26312255859375,52.1826171875C10.659912109375,52.32568359375,11.0596923828125,52.459716796875,11.4609375,52.588134765625L22.334716796875,44.563720703125C22.3184814453125,44.563720703125,22.30224609375,44.563720703125,22.2860107421875,44.563720703125Z" class="cls-3" style="fill: rgb(244, 101, 0); fill-opacity: 1;"></path></g></g><g id="shape-cf4ba2eb-8ec7-80f0-8006-975c486a220f"><g class="fills" id="fills-cf4ba2eb-8ec7-80f0-8006-975c486a220f"><path d="M41.384063720703125,31.424072265625L30.688812255859375,39.317138671875C30.685821533203125,40.170654296875,30.49847412109375,40.921142578125,30.131256103515625,41.566650390625L42.15116882324219,32.695068359375C41.92680358886719,32.240966796875,41.671783447265625,31.81640625,41.38262939453125,31.4228515625Z" class="cls-3" style="fill: rgb(244, 101, 0); fill-opacity: 1;"></path></g></g><g id="shape-cf4ba2eb-8ec7-80f0-8006-975c486a2210"><g class="fills" id="fills-cf4ba2eb-8ec7-80f0-8006-975c486a2210"><path d="M23.646240234375,44.51513671875L12.338653564453125,52.860595703125C12.94500732421875,53.0390625,13.5557861328125,53.201416015625,14.172271728515625,53.345947265625L27.0140380859375,43.867919921875C26.0389404296875,44.211669921875,24.914794921875,44.4267578125,23.64764404296875,44.513916015625Z" class="cls-3" style="fill: rgb(244, 101, 0); fill-opacity: 1;"></path></g></g><g id="shape-cf4ba2eb-8ec7-80f0-8006-975c486a2211"><g class="fills" id="fills-cf4ba2eb-8ec7-80f0-8006-975c486a2211"><path d="M42.460968017578125,33.386474609375L15.12982177734375,53.556396484375C15.79217529296875,53.695068359375,16.46044921875,53.81591796875,17.133148193359375,53.916259765625L42.924224853515625,34.881103515625C42.80012512207031,34.35498046875,42.64689636230469,33.855224609375,42.460968017578125,33.385009765625Z" class="cls-3" style="fill: rgb(244, 101, 0); fill-opacity: 1;"></path></g></g><g id="shape-cf4ba2eb-8ec7-80f0-8006-975c486a2212"><g class="fills" id="fills-cf4ba2eb-8ec7-80f0-8006-975c486a2212"><path d="M43.08653259277344,35.68310546875L18.1878662109375,54.059326171875C18.92095947265625,54.147705078125,19.660125732421875,54.215576171875,20.4051513671875,54.260986328125L43.26934814453125,37.385986328125C43.23689270019531,36.791748046875,43.177947998046875,36.222900390625,43.08653259277344,35.681640625Z" class="cls-3" style="fill: rgb(244, 101, 0); fill-opacity: 1;"></path></g></g><g id="shape-cf4ba2eb-8ec7-80f0-8006-975c486a2213"><g class="fills" id="fills-cf4ba2eb-8ec7-80f0-8006-975c486a2213"><path d="M43.297393798828125,38.373779296875C43.297393798828125,38.343994140625,43.297393798828125,38.316162109375,43.297393798828125,38.286865234375L21.5823974609375,54.312744140625C21.977783203125,54.324462890625,22.376007080078125,54.33349609375,22.77435302734375,54.33349609375C23.215423583984375,54.33349609375,23.64764404296875,54.324462890625,24.076904296875,54.309814453125L43.21327209472656,40.18701171875C43.270904541015625,39.598876953125,43.300384521484375,38.994384765625,43.300384521484375,38.373779296875Z" class="cls-3" style="fill: rgb(244, 101, 0); fill-opacity: 1;"></path></g></g><g id="shape-cf4ba2eb-8ec7-80f0-8006-975c486a2214"><g class="fills" id="fills-cf4ba2eb-8ec7-80f0-8006-975c486a2214"><path d="M28.36529541015625,53.903076171875L42.54498291015625,43.437744140625C42.776611328125,42.725341796875,42.953582763671875,41.981201171875,43.07769775390625,41.20556640625L25.416473388671875,54.240478515625C26.437286376953125,54.169677734375,27.421112060546875,54.057861328125,28.36529541015625,53.903076171875Z" class="cls-3" style="fill: rgb(244, 101, 0); fill-opacity: 1;"></path></g></g><g id="shape-cf4ba2eb-8ec7-80f0-8006-975c486a2215"><g class="fills" id="fills-cf4ba2eb-8ec7-80f0-8006-975c486a2215"><path d="M34.82981872558594,51.88916015625L39.742095947265625,48.26416015625C40.709808349609375,47.19970703125,41.47857666015625,46.018798828125,42.05079650878906,44.7216796875L30.067779541015625,53.5654296875C31.7967529296875,53.164306640625,33.38392639160156,52.605712890625,34.82981872558594,51.88916015625Z" class="cls-3" style="fill: rgb(244, 101, 0); fill-opacity: 1;"></path></g></g><g id="shape-cf4ba2eb-8ec7-80f0-8006-975c486a2216"><g class="fills" id="fills-cf4ba2eb-8ec7-80f0-8006-975c486a2216"><path d="M19.205810546875,21.358154296875C18.848876953125,21.228759765625,18.516876220703125,21.093017578125,18.207061767578125,20.951416015625L8.34381103515625,28.229736328125C8.7894287109375,28.5068359375,9.26141357421875,28.770751953125,9.761444091796875,29.022705078125L19.83721923828125,21.5869140625C19.620269775390625,21.51025390625,19.4078369140625,21.43359375,19.205810546875,21.358154296875Z" class="cls-3" style="fill: rgb(244, 101, 0); fill-opacity: 1;"></path></g></g><g id="shape-cf4ba2eb-8ec7-80f0-8006-975c486a2217"><g class="fills" id="fills-cf4ba2eb-8ec7-80f0-8006-975c486a2217"><path d="M30.10308837890625,12.968505859375C30.398101806640625,13.088134765625,30.696197509765625,13.21484375,30.9957275390625,13.351806640625L39.950103759765625,6.742919921875C39.520843505859375,6.436279296875,39.08717346191406,6.14306640625,38.64598083496094,5.867431640625L29.38922119140625,12.698974609375C29.62811279296875,12.784423828125,29.8670654296875,12.872802734375,30.104644775390625,12.968505859375Z" class="cls-3" style="fill: rgb(244, 101, 0); fill-opacity: 1;"></path></g></g><g id="shape-cf4ba2eb-8ec7-80f0-8006-975c486a2218"><g class="fills" id="fills-cf4ba2eb-8ec7-80f0-8006-975c486a2218"><path d="M33.193695068359375,14.487060546875L41.76020812988281,8.164306640625C41.370697021484375,7.82958984375,40.97401428222656,7.509521484375,40.571136474609375,7.202880859375L31.75091552734375,13.713134765625C32.22601318359375,13.948974609375,32.708465576171875,14.208251953125,33.193695068359375,14.487060546875Z" class="cls-3" style="fill: rgb(244, 101, 0); fill-opacity: 1;"></path></g></g><g id="shape-cf4ba2eb-8ec7-80f0-8006-975c486a2219"><g class="fills" id="fills-cf4ba2eb-8ec7-80f0-8006-975c486a2219"><path d="M20.680938720703125,21.883056640625L10.51385498046875,29.386962890625C11.011016845703125,29.612548828125,11.53753662109375,29.839599609375,12.08197021484375,30.068115234375L22.39080810546875,22.459716796875C21.785888671875,22.260498046875,21.216522216796875,22.067626953125,20.680938720703125,21.883056640625Z" class="cls-3" style="fill: rgb(244, 101, 0); fill-opacity: 1;"></path></g></g><g id="shape-cf4ba2eb-8ec7-80f0-8006-975c486a221a"><g class="fills" id="fills-cf4ba2eb-8ec7-80f0-8006-975c486a221a"><path d="M25.627349853515625,0.740234375C29.275634765625,0.740234375,32.72900390625,1.31201171875,35.98774719238281,2.44873046875C39.24505615234375,3.588134765625,42.20867919921875,5.427978515625,44.8818359375,7.966796875L39.60498046875,16.267822265625C36.9981689453125,14.249755859375,34.52287292480469,12.769775390625,32.17730712890625,11.822998046875C29.83172607421875,10.881103515625,27.4521484375,10.406494140625,25.043212890625,10.406494140625C23.67559814453125,10.406494140625,22.3878173828125,10.567138671875,21.1826171875,10.886962890625C19.97589111328125,11.20703125,18.999237060546875,11.736083984375,18.251220703125,12.473388671875C17.50189208984375,13.2119140625,17.127197265625,14.252685546875,17.127197265625,15.59716796875C17.127197265625,16.81494140625,17.469329833984375,17.76123046875,18.153961181640625,18.43359375C18.83837890625,19.105712890625,19.87994384765625,19.698486328125,21.28143310546875,20.21142578125C22.681396484375,20.724365234375,24.392578125,21.30078125,26.4122314453125,21.942138671875C30.517669677734375,23.094970703125,33.98585510253906,24.281494140625,36.821197509765625,25.499267578125C39.65510559082031,26.715576171875,41.78981018066406,28.208984375,43.22352600097656,29.96923828125C44.65605163574219,31.732421875,45.37303161621094,34.150146484375,45.37303161621094,37.226806640625C45.37303161621094,42.227294921875,43.51567077636719,46.136962890625,39.80259704589844,48.95703125C36.08953857421875,51.777099609375,31.10479736328125,53.1865234375,24.8499755859375,53.1865234375C20.483306884765625,53.1865234375,16.31292724609375,52.468505859375,12.3402099609375,51.037109375C8.36590576171875,49.607177734375,4.944854736328125,47.488525390625,2.07861328125,44.689208984375L6.769775390625,36.19189453125C9.83233642578125,38.66845703125,12.844757080078125,40.489013671875,15.809814453125,41.6611328125C18.7734375,42.833251953125,21.6251220703125,43.419921875,24.361541748046875,43.419921875C26.9034423828125,43.419921875,28.937652587890625,42.980712890625,30.47039794921875,42.1005859375C32.00030517578125,41.221923828125,32.767303466796875,39.902587890625,32.767303466796875,38.14501953125C32.767303466796875,36.923095703125,32.34259033203125,35.976806640625,31.4971923828125,35.301513671875C30.650390625,34.626220703125,29.42755126953125,34.0322265625,27.83282470703125,33.516357421875C26.235137939453125,33.003173828125,24.29815673828125,32.423828125,22.01751708984375,31.782470703125C18.23809814453125,30.560302734375,15.078277587890625,29.37060546875,12.537841796875,28.215087890625C9.996063232421875,27.0576171875,8.090118408203125,25.5966796875,6.81988525390625,23.82763671875C5.549652099609375,22.061767578125,4.9140625,19.794189453125,4.9140625,17.030029296875C4.9140625,13.688232421875,5.776885986328125,10.813232421875,7.50439453125,8.401611328125C9.23040771484375,5.98974609375,11.640869140625,4.110107421875,14.737335205078125,2.76123046875C17.8309326171875,1.412353515625,21.464263916015625,0.737060546875,25.6346435546875,0.737060546875M25.627349853515625,0C21.374267578125,0,17.60821533203125,0.701904296875,14.433502197265625,2.086181640625C11.22784423828125,3.483642578125,8.69036865234375,5.465087890625,6.89520263671875,7.973876953125C5.0849609375,10.500732421875,4.16748046875,13.549560546875,4.16748046875,17.032958984375C4.16748046875,19.943115234375,4.854888916015625,22.374267578125,6.21209716796875,24.260986328125C7.5531005859375,26.1259765625,9.57562255859375,27.682861328125,12.22503662109375,28.889892578125C14.780181884765625,30.05322265625,17.99609375,31.264892578125,21.784332275390625,32.48876953125C24.057708740234375,33.1298828125,26.00506591796875,33.710693359375,27.6011962890625,34.223876953125C29.102813720703125,34.708740234375,30.25799560546875,35.26611328125,31.03106689453125,35.882080078125C31.69781494140625,36.414306640625,32.02239990234375,37.154541015625,32.02239990234375,38.146728515625C32.02239990234375,39.632568359375,31.392425537109375,40.71630859375,30.097137451171875,41.459228515625C28.686920166015625,42.268798828125,26.75592041015625,42.679931640625,24.35723876953125,42.679931640625C21.725372314453125,42.679931640625,18.940277099609375,42.106201171875,16.07830810546875,40.97412109375C13.194305419921875,39.83447265625,10.217193603515625,38.033203125,7.231597900390625,35.616943359375L6.543975830078125,35.061279296875L6.117706298828125,35.835205078125L1.426544189453125,44.33251953125L1.155181884765625,44.824951171875L1.557952880859375,45.218505859375C4.488983154296875,48.081298828125,8.031036376953125,50.2734375,12.08648681640625,51.73291015625C16.125579833984375,53.18798828125,20.41839599609375,53.926513671875,24.84844970703125,53.926513671875C31.2406005859375,53.926513671875,36.4228515625,52.452392578125,40.2496337890625,49.546875C44.139678955078125,46.593994140625,46.113525390625,42.448486328125,46.113525390625,37.228271484375C46.113525390625,33.993896484375,45.33460998535156,31.396240234375,43.79754638671875,29.504638671875C42.289825439453125,27.65478515625,40.04164123535156,26.078857421875,37.11332702636719,24.8212890625C34.26176452636719,23.59619140625,30.728668212890625,22.387451171875,26.61273193359375,21.231689453125C24.64483642578125,20.606689453125,22.92913818359375,20.028564453125,21.53515625,19.518798828125C20.24127197265625,19.04541015625,19.27801513671875,18.504150390625,18.6717529296875,17.90869140625C18.130340576171875,17.376708984375,17.866241455078125,16.621826171875,17.866241455078125,15.60009765625C17.866241455078125,14.450439453125,18.161376953125,13.601318359375,18.7691650390625,13.002685546875C19.422637939453125,12.35986328125,20.29736328125,11.889404296875,21.37139892578125,11.603515625C22.5101318359375,11.30126953125,23.74505615234375,11.146484375,25.041748046875,11.146484375C27.34161376953125,11.146484375,29.648773193359375,11.60498046875,31.89996337890625,12.5087890625C34.171783447265625,13.424072265625,36.61175537109375,14.885009765625,39.150543212890625,16.851806640625L39.79234313964844,17.348388671875L40.227447509765625,16.6630859375L45.504302978515625,8.36181640625L45.83033752441406,7.8486328125L45.38926696777344,7.429931640625C42.6541748046875,4.8310546875,39.57252502441406,2.919189453125,36.229644775390625,1.749755859375C32.9046630859375,0.58984375,29.337432861328125,0,25.627349853515625,0L25.627349853515625,0L25.627349853515625,0" class="cls-2" style="fill: rgb(16, 16, 16); fill-opacity: 1;"></path></g></g></g></svg></svg></g></g></svg></g><g id="dark-icon"><svg xmlns="http://www.w3.org/2000/svg" version="1.1" xmlns:xlink="http://www.w3.org/1999/xlink" width="1000" height="1000"><g clip-path="url(#SvgjsClipPath1104)"><rect width="1000" height="1000" fill="#000000"></rect><g transform="matrix(12.883514622789097,0,0,12.883514622789097,202.9448033423518,150)"><svg xmlns="http://www.w3.org/2000/svg" version="1.1" xmlns:xlink="http://www.w3.org/1999/xlink" width="46.114" height="54.333"><svg width="46.114" xmlns="http://www.w3.org/2000/svg" height="54.333" id="screenshot-19238422-6354-80ab-8006-96468d63f680" viewBox="0 0 46.114 54.333" xmlns:xlink="http://www.w3.org/1999/xlink" fill="none" version="1.1"><g id="shape-19238422-6354-80ab-8006-96468d63f680" rx="0" ry="0"><g id="shape-19238422-6354-80ab-8006-96468d6427ec"><defs style="fill: rgb(244, 101, 0); fill-opacity: 1;"><g id="shape-19238422-6354-80ab-8006-96468d6427ed"><style>#shape-{ .cls-1 {
        fill: none;
      }

      .cls-2 {
        fill: #f3ede9;
      }

      .cls-3 {
        fill: #f46500;
      } }</style></g><clipPath id="SvgjsClipPath1104"><rect width="1000" height="1000" x="0" y="0" rx="350" ry="350"></rect></clipPath></defs></g><g id="shape-19238422-6354-80ab-8006-96468d6427ef"><g class="fills" id="fills-19238422-6354-80ab-8006-96468d6427ef"><path d="M37.53076934814453,17.413408279418945L38.26386260986328,16.26048469543457L37.12061309814453,17.103731155395508C37.257850646972656,17.20707893371582,37.393653869628906,17.30565071105957,37.53076934814453,17.413408279418945Z" class="cls-1" style="fill: rgb(244, 101, 0); fill-opacity: 1;"></path></g></g><g id="shape-19238422-6354-80ab-8006-96468d6427f0"><g class="fills" id="fills-19238422-6354-80ab-8006-96468d6427f0"><path d="M37.72541046142578,50.1039924621582C38.47496795654297,49.53499221801758,39.14325714111328,48.9201545715332,39.742095947265625,48.2641487121582L34.829811096191406,51.8891487121582C35.8682861328125,51.37468338012695,36.834442138671875,50.7806282043457,37.727081298828125,50.1039924621582Z" class="cls-1" style="fill: rgb(244, 101, 0); fill-opacity: 1;"></path></g></g><g id="shape-19238422-6354-80ab-8006-96468d6427f1"><g class="fills" id="fills-19238422-6354-80ab-8006-96468d6427f1"><path d="M12.657400131225586,3.908114194869995C9.562383651733398,5.257113456726074,7.150335311889648,7.138216972351074,5.424360275268555,9.548480033874512C5.157278060913086,9.921404838562012,4.912519454956055,10.307696342468262,4.686849594116211,10.704257011413574L15.106199264526367,3.0161921977996826C14.256521224975586,3.271334409713745,13.439176559448242,3.5676448345184326,12.657400131225586,3.90967059135437Z" class="cls-3" style="fill: rgb(244, 101, 0); fill-opacity: 1;"></path></g></g><g id="shape-19238422-6354-80ab-8006-96468d6427f2"><g class="fills" id="fills-19238422-6354-80ab-8006-96468d6427f2"><path d="M16.994474411010742,2.5417048931121826L3.974287271499634,12.15039348602295C3.654104471206665,12.914034843444824,3.4003965854644775,13.713000297546387,3.214468240737915,14.54895305633545L20.1484432220459,2.05218768119812C19.053884506225586,2.159823179244995,18.003477096557617,2.3247554302215576,16.994474411010742,2.5417048931121826Z" class="cls-3" style="fill: rgb(244, 101, 0); fill-opacity: 1;"></path></g></g><g id="shape-19238422-6354-80ab-8006-96468d6427f3"><g class="fills" id="fills-19238422-6354-80ab-8006-96468d6427f3"><path d="M23.5546932220459,1.8840358257293701C22.865758895874023,1.8840358257293701,22.19746971130371,1.9090907573699951,21.538007736206055,1.9459712505340576L3.0197126865386963,15.613329887390137C2.92543625831604,16.25023078918457,2.8664839267730713,16.904787063598633,2.844282388687134,17.581438064575195L24.098989486694336,1.8944118022918701C23.917593002319336,1.8914363384246826,23.737638473510742,1.8840358257293701,23.5546932220459,1.8840358257293701Z" class="cls-3" style="fill: rgb(244, 101, 0); fill-opacity: 1;"></path></g></g><g id="shape-19238422-6354-80ab-8006-96468d6427f4"><g class="fills" id="fills-19238422-6354-80ab-8006-96468d6427f4"><path d="M25.290929794311523,1.9327266216278076L2.844282388687134,18.499971389770508C2.85597825050354,19.105730056762695,2.8944075107574463,19.689531326293945,2.968153238296509,20.246721267700195L27.53041648864746,2.120089292526245C26.79279136657715,2.0315425395965576,26.04633903503418,1.9710261821746826,25.2924861907959,1.9327266216278076Z" class="cls-3" style="fill: rgb(244, 101, 0); fill-opacity: 1;"></path></g></g><g id="shape-19238422-6354-80ab-8006-96468d6427f5"><g class="fills" id="fills-19238422-6354-80ab-8006-96468d6427f5"><path d="M28.574857711791992,2.2672297954559326L3.1009809970855713,21.067873001098633C3.2070677280426025,21.60441780090332,3.350271463394165,22.111604690551758,3.519972085952759,22.596712112426758L30.557531356811523,2.64325213432312C29.903921127319336,2.4974238872528076,29.243146896362305,2.37201189994812,28.574857711791992,2.268893003463745Z" class="cls-3" style="fill: rgb(244, 101, 0); fill-opacity: 1;"></path></g></g><g id="shape-19238422-6354-80ab-8006-96468d6427f6"><g class="fills" id="fills-19238422-6354-80ab-8006-96468d6427f6"><path d="M15.051664352416992,16.74559211730957C15.051664352416992,15.971697807312012,15.179952621459961,15.302325248718262,15.427694320678711,14.73034954071045L3.8031599521636963,23.31022834777832C4.006628036499023,23.774446487426758,4.244230270385742,24.212419509887695,4.512739181518555,24.625200271606445L15.056081771850586,16.84428596496582C15.056081771850586,16.811952590942383,15.052976608276367,16.780916213989258,15.052976608276367,16.747026443481445Z" class="cls-3" style="fill: rgb(244, 101, 0); fill-opacity: 1;"></path></g></g><g id="shape-19238422-6354-80ab-8006-96468d6427f7"><g class="fills" id="fills-19238422-6354-80ab-8006-96468d6427f7"><path d="M19.106870651245117,12.034045219421387C20.080663681030273,11.7746000289917,21.11030387878418,11.625658988952637,22.1900691986084,11.575549125671387L33.28367614746094,3.3878047466278076C32.695098876953125,3.1975886821746826,32.10199737548828,3.01916766166687,31.50172996520996,2.8643977642059326L19.059850692749023,12.047289848327637C19.076078414916992,12.042742729187012,19.090635299682617,12.036898612976074,19.106870651245117,12.034045219421387Z" class="cls-3" style="fill: rgb(244, 101, 0); fill-opacity: 1;"></path></g></g><g id="shape-19238422-6354-80ab-8006-96468d6427f8"><g class="fills" id="fills-19238422-6354-80ab-8006-96468d6427f8"><path d="M25.68330955505371,11.755267143249512L35.75169372558594,4.323885917663574C35.22350311279297,4.088076591491699,34.68517303466797,3.8712337017059326,34.14075469970703,3.67517352104187L23.451467514038086,11.56372356414795C24.197797775268555,11.5829496383667,24.94294548034668,11.643328666687012,25.68330955505371,11.755267143249512Z" class="cls-3" style="fill: rgb(244, 101, 0); fill-opacity: 1;"></path></g></g><g id="shape-19238422-6354-80ab-8006-96468d6427f9"><g class="fills" id="fills-19238422-6354-80ab-8006-96468d6427f9"><path d="M15.134244918823242,17.70231819152832L4.937582015991211,25.228212356567383C5.234136581420898,25.614397048950195,5.558614730834961,25.987321853637695,5.917104721069336,26.342714309692383L15.699186325073242,19.12339973449707C15.421964645385742,18.72087287902832,15.233053207397461,18.247941970825195,15.134244918823242,17.70231819152832Z" class="cls-3" style="fill: rgb(244, 101, 0); fill-opacity: 1;"></path></g></g><g id="shape-19238422-6354-80ab-8006-96468d6427fa"><g class="fills" id="fills-19238422-6354-80ab-8006-96468d6427fa"><path d="M28.53046226501465,12.412814140319824L37.958595275878906,5.454607963562012C37.48363494873047,5.178942680358887,37.002708435058594,4.922366142272949,36.51294708251953,4.683566093444824L26.686460494995117,11.936663627624512C27.303197860717773,12.063509941101074,27.918378829956055,12.224139213562012,28.53046226501465,12.4143705368042Z" class="cls-3" style="fill: rgb(244, 101, 0); fill-opacity: 1;"></path></g></g><g id="shape-19238422-6354-80ab-8006-96468d6427fb"><g class="fills" id="fills-19238422-6354-80ab-8006-96468d6427fb"><path d="M16.188947677612305,19.682130813598633L6.465932846069336,26.858598709106445C6.84065055847168,27.187257766723633,7.249265670776367,27.498491287231445,7.68293571472168,27.799226760864258L17.465024948120117,20.580034255981445C16.95760154724121,20.299821853637695,16.532636642456055,20.000520706176758,16.188947677612305,19.683687210083008Z" class="cls-3" style="fill: rgb(244, 101, 0); fill-opacity: 1;"></path></g></g><g id="shape-19238422-6354-80ab-8006-96468d6427fc"><g class="fills" id="fills-19238422-6354-80ab-8006-96468d6427fc"><path d="M24.336469650268555,23.08909797668457C23.963300704956055,22.971071243286133,23.60493278503418,22.856142044067383,23.253721237182617,22.741228103637695L12.881513595581055,30.39671516418457C13.405401229858398,30.609025955200195,13.945287704467773,30.821321487426758,14.508794784545898,31.035051345825195L25.01215934753418,23.28361701965332C24.786489486694336,23.218812942504883,24.566556930541992,23.154008865356445,24.336469650268555,23.08909797668457Z" class="cls-3" style="fill: rgb(244, 101, 0); fill-opacity: 1;"></path></g></g><g id="shape-19238422-6354-80ab-8006-96468d6427fd"><g class="fills" id="fills-19238422-6354-80ab-8006-96468d6427fd"><path d="M4.691267013549805,37.33882522583008L3.8134214878082275,38.92790603637695L5.310750961303711,37.82381057739258C5.104291915893555,37.66316604614258,4.899274826049805,37.50529861450195,4.691267013549805,37.33882522583008Z" class="cls-3" style="fill: rgb(244, 101, 0); fill-opacity: 1;"></path></g></g><g id="shape-19238422-6354-80ab-8006-96468d6427fe"><g class="fills" id="fills-19238422-6354-80ab-8006-96468d6427fe"><path d="M35.22064208984375,15.749011039733887L41.565452575683594,11.0654935836792L42.80763244628906,9.11206340789795C42.6483154296875,8.9603910446167,42.487449645996094,8.812762260437012,42.32658386230469,8.665499687194824L33.887046813964844,14.893954277038574C34.326683044433594,15.160799980163574,34.77228546142578,15.446734428405762,35.22064208984375,15.747576713562012Z" class="cls-3" style="fill: rgb(244, 101, 0); fill-opacity: 1;"></path></g></g><g id="shape-19238422-6354-80ab-8006-96468d6427ff"><g class="fills" id="fills-19238422-6354-80ab-8006-96468d6427ff"><path d="M5.917104721069336,38.29411697387695L2.9578917026519775,40.47880935668945L1.2451612949371338,43.58208084106445L7.17408561706543,39.20656204223633C6.756643295288086,38.9146614074707,6.337530136108398,38.61250686645508,5.917104721069336,38.29542922973633Z" class="cls-3" style="fill: rgb(244, 101, 0); fill-opacity: 1;"></path></g></g><g id="shape-19238422-6354-80ab-8006-96468d642800"><g class="fills" id="fills-19238422-6354-80ab-8006-96468d642800"><path d="M25.90766716003418,23.541749954223633L15.336286544799805,31.34318733215332C15.877836227416992,31.543550491333008,16.43537712097168,31.744279861450195,17.012258529663086,31.944658279418945L27.67194938659668,24.078279495239258C27.098173141479492,23.898439407348633,26.51247215270996,23.720033645629883,25.909101486206055,23.541749954223633Z" class="cls-3" style="fill: rgb(244, 101, 0); fill-opacity: 1;"></path></g></g><g id="shape-19238422-6354-80ab-8006-96468d642801"><g class="fills" id="fills-19238422-6354-80ab-8006-96468d642801"><path d="M37.12061309814453,17.103731155395508L38.26386260986328,16.26048469543457L40.46504211425781,12.7976713180542L35.866851806640625,16.19127082824707C36.28118896484375,16.48173713684082,36.698875427246094,16.786775588989258,37.119178771972656,17.10539436340332Z" class="cls-3" style="fill: rgb(244, 101, 0); fill-opacity: 1;"></path></g></g><g id="shape-19238422-6354-80ab-8006-96468d642802"><g class="fills" id="fills-19238422-6354-80ab-8006-96468d642802"><path d="M28.542394638061523,24.355379104614258L17.860265731811523,32.23796463012695C18.41805076599121,32.4280891418457,18.987409591674805,32.61842727661133,19.576101303100586,32.80995559692383L30.256559371948242,24.927370071411133C29.7004451751709,24.73582649230957,29.130971908569336,24.54417610168457,28.542394638061523,24.353960037231445Z" class="cls-3" style="fill: rgb(244, 101, 0); fill-opacity: 1;"></path></g></g><g id="shape-19238422-6354-80ab-8006-96468d642803"><g class="fills" id="fills-19238422-6354-80ab-8006-96468d642803"><path d="M7.82160758972168,39.64738845825195L0.38796064257621765,45.13298416137695L-0.0000016954209058894776,45.83455276489258C0.27876874804496765,46.10725784301758,0.56648850440979,46.3666877746582,0.855642557144165,46.62623977661133L9.153768539428711,40.50246047973633C8.711149215698242,40.23262405395508,8.267095565795898,39.94514846801758,7.82160758972168,39.64738845825195Z" class="cls-3" style="fill: rgb(244, 101, 0); fill-opacity: 1;"></path></g></g><g id="shape-19238422-6354-80ab-8006-96468d642804"><g class="fills" id="fills-19238422-6354-80ab-8006-96468d642804"><path d="M31.100393295288086,25.22380256652832L20.45967674255371,33.07680130004883C21.08380699157715,33.2537727355957,21.681211471557617,33.42622756958008,22.252126693725586,33.59282302856445L32.75846862792969,25.838396072387695C32.22443389892578,25.632051467895508,31.6727352142334,25.427156448364258,31.10170555114746,25.222246170043945Z" class="cls-3" style="fill: rgb(244, 101, 0); fill-opacity: 1;"></path></g></g><g id="shape-19238422-6354-80ab-8006-96468d642805"><g class="fills" id="fills-19238422-6354-80ab-8006-96468d642805"><path d="M9.84699821472168,40.90938186645508L1.4265577793121338,47.12306594848633C1.8160688877105713,47.45338821411133,2.2143003940582275,47.77177810668945,2.62135910987854,48.07991409301758L11.277975082397461,41.69069290161133C10.801458358764648,41.4473762512207,10.325063705444336,41.1850471496582,9.845571517944336,40.90938186645508Z" class="cls-3" style="fill: rgb(244, 101, 0); fill-opacity: 1;"></path></g></g><g id="shape-19238422-6354-80ab-8006-96468d642806"><g class="fills" id="fills-19238422-6354-80ab-8006-96468d642806"><path d="M12.02741813659668,42.05778884887695L3.244062662124634,48.53981399536133C3.670339822769165,48.84364700317383,4.104131698608398,49.13542556762695,4.549612045288086,49.4153938293457L13.585248947143555,42.74611282348633C13.067441940307617,42.53834915161133,12.548086166381836,42.3054084777832,12.025983810424805,42.05778884887695Z" class="cls-3" style="fill: rgb(244, 101, 0); fill-opacity: 1;"></path></g></g><g id="shape-19238422-6354-80ab-8006-96468d642807"><g class="fills" id="fills-19238422-6354-80ab-8006-96468d642807"><path d="M34.74567413330078,26.646303176879883C34.366424560546875,26.482698440551758,33.97272491455078,26.320512771606445,33.57139587402344,26.158327102661133L23.14154624938965,33.85536575317383C23.765562057495117,34.04103469848633,24.35138511657715,34.22078323364258,24.9030818939209,34.39332962036133L35.155723571777344,26.826143264770508C35.02003479003906,26.765764236450195,34.88422393798828,26.703828811645508,34.74567413330078,26.644990921020508Z" class="cls-3" style="fill: rgb(244, 101, 0); fill-opacity: 1;"></path></g></g><g id="shape-19238422-6354-80ab-8006-96468d642808"><g class="fills" id="fills-19238422-6354-80ab-8006-96468d642808"><path d="M35.91554260253906,27.185945510864258L25.773290634155273,34.67055130004883C26.37689781188965,34.86650466918945,26.926923751831055,35.07295608520508,27.422651290893555,35.29109573364258L37.353797912597656,27.96129035949707C36.89936065673828,27.693010330200195,36.41998291015625,27.43358039855957,35.91398620605469,27.184404373168945Z" class="cls-3" style="fill: rgb(244, 101, 0); fill-opacity: 1;"></path></g></g><g id="shape-19238422-6354-80ab-8006-96468d642809"><g class="fills" id="fills-19238422-6354-80ab-8006-96468d642809"><path d="M14.408437728881836,43.06007766723633L5.238546371459961,49.82829666137695C5.704679489135742,50.10243606567383,6.17976188659668,50.3649787902832,6.66499137878418,50.61391067504883L16.125577926635742,43.6321907043457C15.557531356811523,43.46559524536133,14.985189437866211,43.27251052856445,14.408437728881836,43.0616340637207Z" class="cls-3" style="fill: rgb(244, 101, 0); fill-opacity: 1;"></path></g></g><g id="shape-19238422-6354-80ab-8006-96468d64280a"><g class="fills" id="fills-19238422-6354-80ab-8006-96468d64280a"><path d="M17.02992057800293,43.88124465942383L7.399633407592773,50.9885139465332C7.907171249389648,51.23170852661133,8.42939567565918,51.46025466918945,8.957464218139648,51.67695999145508L18.97273063659668,44.28520584106445C18.3309383392334,44.17912673950195,17.683408737182617,44.0479621887207,17.028364181518555,43.88124465942383Z" class="cls-3" style="fill: rgb(244, 101, 0); fill-opacity: 1;"></path></g></g><g id="shape-19238422-6354-80ab-8006-96468d64280b"><g class="fills" id="fills-19238422-6354-80ab-8006-96468d64280b"><path d="M38.0323486328125,28.381593704223633L28.176511764526367,35.65520095825195C28.65302085876465,35.90581130981445,29.06891441345215,36.1697883605957,29.418569564819336,36.44832229614258C29.44661521911621,36.47050857543945,29.470365524291992,36.4955940246582,29.498289108276367,36.51909255981445L39.29064178466797,29.29106330871582C38.899810791015625,28.977083206176758,38.48081970214844,28.673372268676758,38.0323486328125,28.381593704223633Z" class="cls-3" style="fill: rgb(244, 101, 0); fill-opacity: 1;"></path></g></g><g id="shape-19238422-6354-80ab-8006-96468d64280c"><g class="fills" id="fills-19238422-6354-80ab-8006-96468d64280c"><path d="M39.86907196044922,29.783449172973633L30.010244369506836,37.05861282348633C30.311094284057617,37.45814895629883,30.51325798034668,37.92262649536133,30.6120662689209,38.45329666137695L40.91792297363281,30.847810745239258C40.59929656982422,30.480730056762695,40.2496337890625,30.127016067504883,39.867515563964844,29.783449172973633Z" class="cls-3" style="fill: rgb(244, 101, 0); fill-opacity: 1;"></path></g></g><g id="shape-19238422-6354-80ab-8006-96468d64280d"><g class="fills" id="fills-19238422-6354-80ab-8006-96468d64280d"><path d="M22.284582138061523,44.5654182434082C21.5395565032959,44.5654182434082,20.785703659057617,44.51814651489258,20.02302360534668,44.4312629699707L9.776350021362305,51.99379348754883C9.939962387084961,52.05574417114258,10.097845077514648,52.1236457824707,10.263128280639648,52.1826057434082C10.65992546081543,52.3256721496582,11.05970573425293,52.4598274230957,11.460920333862305,52.5880012512207L22.334707260131836,44.56386184692383C22.318471908569336,44.56386184692383,22.302244186401367,44.56386184692383,22.2860164642334,44.56386184692383Z" class="cls-3" style="fill: rgb(244, 101, 0); fill-opacity: 1;"></path></g></g><g id="shape-19238422-6354-80ab-8006-96468d6477f9"><g class="fills" id="fills-19238422-6354-80ab-8006-96468d6477f9"><path d="M41.384056091308594,31.424211502075195L30.68880271911621,39.31706619262695C30.685819625854492,40.17070388793945,30.498456954956055,40.92119216918945,30.131254196166992,41.56669998168945L42.151161193847656,32.6950569152832C41.92680358886719,32.2409553527832,41.671783447265625,31.816362380981445,41.38262939453125,31.42277717590332Z" class="cls-3" style="fill: rgb(244, 101, 0); fill-opacity: 1;"></path></g></g><g id="shape-19238422-6354-80ab-8006-96468d6477fa"><g class="fills" id="fills-19238422-6354-80ab-8006-96468d6477fa"><path d="M23.646223068237305,44.51518630981445L12.338644027709961,52.86067581176758C12.944997787475586,53.03908157348633,13.555768966674805,53.20125198364258,14.172269821166992,53.34578323364258L27.0140438079834,43.86800003051758C26.038938522338867,44.21156692504883,24.914777755737305,44.4267463684082,23.64765739440918,44.51387405395508Z" class="cls-3" style="fill: rgb(244, 101, 0); fill-opacity: 1;"></path></g></g><g id="shape-19238422-6354-80ab-8006-96468d6477fb"><g class="fills" id="fills-19238422-6354-80ab-8006-96468d6477fb"><path d="M42.460960388183594,33.38637161254883L15.129827499389648,53.55653762817383C15.792150497436523,53.69520950317383,16.460439682006836,53.81596755981445,17.133146286010742,53.91621780395508L42.924224853515625,34.88118362426758C42.80011749267578,34.35503005981445,42.646888732910156,33.85536575317383,42.460960388183594,33.38493728637695Z" class="cls-3" style="fill: rgb(244, 101, 0); fill-opacity: 1;"></path></g></g><g id="shape-19238422-6354-80ab-8006-96468d6477fc"><g class="fills" id="fills-19238422-6354-80ab-8006-96468d6477fc"><path d="M43.086524963378906,35.68312454223633L18.187849044799805,54.0591926574707C18.920942306518555,54.14760208129883,19.66011619567871,54.21550369262695,20.405141830444336,54.2610969543457L43.26934814453125,37.38582229614258C43.23689270019531,36.79188919067383,43.177940368652344,36.2227668762207,43.086524963378906,35.68169021606445Z" class="cls-3" style="fill: rgb(244, 101, 0); fill-opacity: 1;"></path></g></g><g id="shape-19238422-6354-80ab-8006-96468d6477fd"><g class="fills" id="fills-19238422-6354-80ab-8006-96468d6477fd"><path d="M43.297393798828125,38.37370681762695C43.297393798828125,38.3441047668457,43.297393798828125,38.31618118286133,43.297393798828125,38.28670120239258L21.5824031829834,54.31288528442383C21.977766036987305,54.3245735168457,22.37599754333496,54.33342361450195,22.774343490600586,54.33342361450195C23.21541404724121,54.33342361450195,23.64765739440918,54.3245735168457,24.0769100189209,54.30989456176758L43.21326446533203,40.18693923950195C43.270904541015625,39.59871292114258,43.300376892089844,38.9942512512207,43.300376892089844,38.37370681762695Z" class="cls-3" style="fill: rgb(244, 101, 0); fill-opacity: 1;"></path></g></g><g id="shape-19238422-6354-80ab-8006-96468d6477fe"><g class="fills" id="fills-19238422-6354-80ab-8006-96468d6477fe"><path d="M28.36530113220215,53.90297317504883L42.54497528076172,43.43767166137695C42.77660369873047,42.72548294067383,42.953582763671875,41.98103713989258,43.07769775390625,41.20558547973633L25.416471481323242,54.24055862426758C26.437284469604492,54.16981887817383,27.42110252380371,54.05775833129883,28.36530113220215,53.90297317504883Z" class="cls-3" style="fill: rgb(244, 101, 0); fill-opacity: 1;"></path></g></g><g id="shape-19238422-6354-80ab-8006-96468d6477ff"><g class="fills" id="fills-19238422-6354-80ab-8006-96468d6477ff"><path d="M34.829811096191406,51.8891487121582L39.742095947265625,48.2641487121582C40.709800720214844,47.19966506958008,41.47857666015625,46.01893997192383,42.05079650878906,44.72163772583008L30.06777000427246,53.56547927856445C31.796728134155273,53.16438674926758,33.38391876220703,52.60564041137695,34.829811096191406,51.8891487121582Z" class="cls-3" style="fill: rgb(244, 101, 0); fill-opacity: 1;"></path></g></g><g id="shape-19238422-6354-80ab-8006-96468d647800"><g class="fills" id="fills-19238422-6354-80ab-8006-96468d647800"><path d="M19.205801010131836,21.358232498168945C18.848859786987305,21.22862434387207,18.51686668395996,21.09294319152832,18.207059860229492,20.95152473449707L8.34382438659668,28.229555130004883C8.789434432983398,28.506776809692383,9.261411666870117,28.770631790161133,9.761434555053711,29.022783279418945L19.837209701538086,21.586870193481445C19.62026023864746,21.510255813598633,19.407835006713867,21.433534622192383,19.205801010131836,21.358232498168945Z" class="cls-3" style="fill: rgb(244, 101, 0); fill-opacity: 1;"></path></g></g><g id="shape-19238422-6354-80ab-8006-96468d647801"><g class="fills" id="fills-19238422-6354-80ab-8006-96468d647801"><path d="M30.10309410095215,12.9685697555542C30.39809226989746,13.088152885437012,30.696195602416992,13.214770317077637,30.9957332611084,13.351885795593262L39.950103759765625,6.742983818054199C39.520843505859375,6.436404228210449,39.08717346191406,6.143069267272949,38.64598083496094,5.867403984069824L29.389219284057617,12.698870658874512C29.62812614440918,12.78442668914795,29.867040634155273,12.8728666305542,30.104642868041992,12.9685697555542Z" class="cls-3" style="fill: rgb(244, 101, 0); fill-opacity: 1;"></path></g></g><g id="shape-19238422-6354-80ab-8006-96468d647802"><g class="fills" id="fills-19238422-6354-80ab-8006-96468d647802"><path d="M33.193695068359375,14.487017631530762L41.76020812988281,8.164172172546387C41.370689392089844,7.829546928405762,40.97401428222656,7.509600639343262,40.571128845214844,7.203021049499512L31.750905990600586,13.713000297546387C32.225990295410156,13.948931694030762,32.708465576171875,14.208361625671387,33.193695068359375,14.487017631530762Z" class="cls-3" style="fill: rgb(244, 101, 0); fill-opacity: 1;"></path></g></g><g id="shape-19238422-6354-80ab-8006-96468d647803"><g class="fills" id="fills-19238422-6354-80ab-8006-96468d647803"><path d="M20.68092918395996,21.883195877075195L10.513860702514648,29.38688850402832C11.011014938354492,29.612550735473633,11.537534713745117,29.839540481567383,12.081953048706055,30.067949295043945L22.390790939331055,22.459596633911133C21.785871505737305,22.260530471801758,21.21651268005371,22.067445755004883,20.68092918395996,21.883195877075195Z" class="cls-3" style="fill: rgb(244, 101, 0); fill-opacity: 1;"></path></g></g><g id="shape-19238422-6354-80ab-8006-96468d647804"><g class="fills" id="fills-19238422-6354-80ab-8006-96468d647804"><path d="M25.62734031677246,0.7401912808418274C29.275609970092773,0.7401912808418274,32.72899627685547,1.3120448589324951,35.98773956298828,2.44873309135437C39.24505615234375,3.588289976119995,42.20867919921875,5.427996635437012,44.8818359375,7.966784477233887L39.60497283935547,16.267885208129883C36.9981689453125,14.249651908874512,34.52287292480469,12.769640922546387,32.17729949951172,11.823046684265137C29.831716537475586,10.881243705749512,27.452131271362305,10.406512260437012,25.043188095092773,10.406512260437012C23.675580978393555,10.406512260437012,22.387807846069336,10.56714153289795,21.1826229095459,10.88708782196045C19.975881576538086,11.20703411102295,18.99922752380371,11.736178398132324,18.251218795776367,12.473437309265137C17.50189781188965,13.211901664733887,17.127180099487305,14.252764701843262,17.127180099487305,15.597216606140137C17.127180099487305,16.81492805480957,17.46932029724121,17.76127815246582,18.153959274291992,18.433626174926758C18.838361740112305,19.105730056762695,19.879934310913086,19.698488235473633,21.281431198120117,20.211397171020508C22.681379318237305,20.724428176879883,24.392560958862305,21.30082893371582,26.412221908569336,21.942140579223633C30.517667770385742,23.094942092895508,33.98585510253906,24.281633377075195,36.821189880371094,25.499345779418945C39.65509796142578,26.715639114379883,41.78980255126953,28.20903205871582,43.22352600097656,29.969255447387695C44.65605163574219,31.73234748840332,45.37303161621094,34.1501350402832,45.37303161621094,37.22676467895508C45.37303161621094,42.22722244262695,43.515663146972656,46.13685989379883,39.80259704589844,48.9570198059082C36.08953857421875,51.7772102355957,31.10481071472168,53.18645095825195,24.8499813079834,53.18645095825195C20.483304977416992,53.18645095825195,16.31294059753418,52.46852493286133,12.340200424194336,51.03706741333008C8.365903854370117,49.6071662902832,4.944860458374023,47.48857498168945,2.0786116123199463,44.68928909301758L6.769765853881836,36.19185256958008C9.832319259643555,38.66847610473633,12.844755172729492,40.48909378051758,15.809812545776367,41.66109085083008C18.773435592651367,42.8331184387207,21.6251277923584,43.41987991333008,24.36153221130371,43.41987991333008C26.903417587280273,43.41987991333008,28.93764305114746,42.98060989379883,30.47041130065918,42.10051345825195C32.00032043457031,41.22182083129883,32.767303466796875,39.90242385864258,32.767303466796875,38.14506912231445C32.767303466796875,36.92305374145508,32.34258270263672,35.97670364379883,31.497190475463867,35.3013801574707C30.650373458862305,34.62627029418945,29.427526473999023,34.0322151184082,27.832815170288086,33.51619338989258C26.23512840270996,33.0030403137207,24.29816246032715,32.42378616333008,22.017507553100586,31.78245735168457C18.238088607788086,30.560457229614258,15.078275680541992,29.37065315246582,12.537824630737305,28.214998245239258C9.996053695678711,27.05766487121582,8.090116500854492,25.59672737121582,6.819890975952148,23.82756233215332C5.549665451049805,22.061601638793945,4.914068222045898,19.794191360473633,4.914068222045898,17.030092239379883C4.914068222045898,13.6880521774292,5.776884078979492,10.813342094421387,7.50440788269043,8.401522636413574C9.230382919311523,5.989718437194824,11.64088249206543,4.110156059265137,14.737325668334961,2.76117205619812C17.830915451049805,1.4122951030731201,21.464262008666992,0.7370784878730774,25.634626388549805,0.7370784878730774M25.62734031677246,0.00004844849172513932C21.37428092956543,0.00004844849172513932,17.60822868347168,0.7017543911933899,14.433492660522461,2.0860774517059326C11.22785758972168,3.4836299419403076,8.69038200378418,5.464999198913574,6.895193099975586,7.973940849304199C5.084959030151367,10.5007963180542,4.16749382019043,13.5496244430542,4.16749382019043,17.032960891723633C4.16749382019043,19.943117141723633,4.854879379272461,22.374147415161133,6.212102890014648,24.261110305786133C7.553098678588867,26.125993728637695,9.575628280639648,27.682756423950195,12.225034713745117,28.889970779418945C14.780172348022461,30.05327033996582,17.996076583862305,31.265016555786133,21.78432273864746,32.48869705200195C24.05769920349121,33.12990188598633,26.005048751831055,33.71071243286133,27.601186752319336,34.2238655090332C29.10280418395996,34.7087287902832,30.257993698120117,35.26604080200195,31.031057357788086,35.8821907043457C31.697797775268555,36.4144172668457,32.02239990234375,37.15443801879883,32.02239990234375,38.14662551879883C32.02239990234375,39.63270950317383,31.39241600036621,40.7162971496582,30.09712791442871,41.45918655395508C28.686918258666992,42.26863479614258,26.755918502807617,42.67976760864258,24.357236862182617,42.67976760864258C21.725370407104492,42.67976760864258,18.940275192260742,42.10634231567383,16.07832145690918,40.97407913208008C13.194295883178711,39.83452224731445,10.217184066772461,38.03325271606445,7.231603622436523,35.61677932739258L6.543981552124023,35.0611457824707L6.117704391479492,35.83516311645508L1.4265577793121338,44.33247756958008L1.1551802158355713,44.82484817504883L1.55794358253479,45.21843338012695C4.488988876342773,48.08131790161133,8.031042098999023,50.2734260559082,12.086484909057617,51.73292922973633C16.125577926635742,53.18800735473633,20.418386459350586,53.92659378051758,24.848424911499023,53.92659378051758C31.24061393737793,53.92659378051758,36.42284393310547,52.45228958129883,40.2496337890625,49.54680252075195C44.139678955078125,46.59392166137695,46.11351776123047,42.4483528137207,46.11351776123047,37.22819900512695C46.11351776123047,33.99391555786133,45.33460235595703,31.39628791809082,43.79753875732422,29.504793167114258C42.289825439453125,27.65471076965332,40.04163360595703,26.078737258911133,37.11332702636719,24.82127571105957C34.26176452636719,23.596162796020508,30.72865867614746,22.387392044067383,26.612714767456055,21.23161506652832C24.64484214782715,20.606523513793945,22.929121017456055,20.028688430786133,21.535146713256836,19.518632888793945C20.24128532409668,19.045351028442383,19.277997970581055,18.504274368286133,18.67176628112793,17.908662796020508C18.13033103942871,17.376527786254883,17.866239547729492,16.621721267700195,17.866239547729492,15.600085258483887C17.866239547729492,14.4502592086792,18.161359786987305,13.601183891296387,18.769140243530273,13.002581596374512C19.422636032104492,12.359835624694824,20.29737663269043,11.88940715789795,21.37141227722168,11.603472709655762C22.510129928588867,11.301302909851074,23.745031356811523,11.146533012390137,25.0417537689209,11.146533012390137C27.34162712097168,11.146533012390137,29.648771286010742,11.604907035827637,31.899953842163086,12.508761405944824C34.171783447265625,13.42419719696045,36.61175537109375,14.88501262664795,39.150543212890625,16.851686477661133L39.792335510253906,17.34849739074707L40.227439880371094,16.66301155090332L45.504295349121094,8.361788749694824L45.83032989501953,7.848635673522949L45.389259338378906,7.429995536804199C42.65416717529297,4.831072807312012,39.57251739501953,2.9190547466278076,36.229637145996094,1.7498958110809326C32.90465545654297,0.5898159146308899,29.33742332458496,0.00004844849172513932,25.62734031677246,0.00004844849172513932L25.62734031677246,0.00004844849172513932L25.62734031677246,0.00004844849172513932" class="cls-2" style="fill: rgb(235, 235, 235); fill-opacity: 1;"></path></g></g></g></svg></svg></g></g></svg></g></svg>